<svg xmlns="http://www.w3.org/2000/svg" xmlns:xlink="http://www.w3.org/1999/xlink" width="1080" zoomAndPan="magnify" viewBox="0 0 810 809.999993" height="1080" preserveAspectRatio="xMidYMid meet" version="1.0"><defs><clipPath id="63b39c177e"><path d="M 253 73.417969 L 347 73.417969 L 347 129 L 253 129 Z M 253 73.417969 " clip-rule="nonzero"/></clipPath></defs><path fill="#ffffff" d="M 375.941406 206.292969 C 374.71875 206.292969 373.492188 205.925781 372.386719 205.191406 C 369.691406 203.230469 368.957031 199.429688 370.917969 196.609375 C 383.542969 178.957031 400.582031 169.152344 418.847656 169.152344 C 435.761719 169.152344 452.066406 177.855469 464.445312 193.667969 C 466.527344 196.363281 466.039062 200.164062 463.464844 202.25 C 460.769531 204.332031 456.96875 203.84375 454.882812 201.269531 C 444.832031 188.519531 431.960938 181.410156 418.847656 181.410156 C 404.625 181.410156 391.265625 189.378906 380.96875 203.71875 C 379.742188 205.4375 377.90625 206.292969 375.941406 206.292969 Z M 375.941406 206.292969 " fill-opacity="1" fill-rule="nonzero"/><path fill="#ffffff" d="M 376.1875 314.652344 C 372.757812 314.652344 370.058594 311.957031 370.058594 308.523438 L 370.058594 295.652344 C 370.058594 285.480469 361.847656 277.265625 351.671875 277.265625 L 308.035156 277.265625 C 304.601562 277.265625 301.90625 274.570312 301.90625 271.136719 C 301.90625 267.707031 304.601562 265.007812 308.035156 265.007812 L 351.671875 265.007812 C 368.589844 265.007812 382.316406 278.738281 382.316406 295.652344 L 382.316406 308.523438 C 382.316406 311.957031 379.621094 314.652344 376.1875 314.652344 Z M 376.1875 314.652344 " fill-opacity="1" fill-rule="nonzero"/><path fill="#ffffff" d="M 224.066406 233.261719 C 220.636719 233.261719 217.9375 230.566406 217.9375 227.132812 L 217.9375 203.105469 C 217.9375 197.34375 219.65625 191.828125 222.964844 187.292969 L 260.839844 133.851562 C 261.820312 132.5 262.3125 130.90625 262.3125 129.191406 L 262.3125 122.082031 C 262.3125 118.648438 265.007812 115.953125 268.441406 115.953125 C 271.875 115.953125 274.570312 118.648438 274.570312 122.082031 L 274.570312 129.191406 C 274.570312 133.480469 273.222656 137.773438 270.769531 141.082031 L 232.894531 194.402344 C 231.054688 196.976562 230.074219 199.917969 230.074219 203.105469 L 230.074219 227.132812 C 230.074219 230.566406 227.378906 233.261719 223.945312 233.261719 Z M 224.066406 233.261719 " fill-opacity="1" fill-rule="nonzero"/><path fill="#ffffff" d="M 592.664062 314.652344 C 589.230469 314.652344 586.535156 311.957031 586.535156 308.523438 L 586.535156 237.550781 L 456.355469 237.550781 L 456.355469 308.523438 C 456.355469 311.957031 453.660156 314.652344 450.226562 314.652344 C 446.792969 314.652344 444.097656 311.957031 444.097656 308.523438 L 444.097656 231.421875 C 444.097656 227.992188 446.792969 225.292969 450.226562 225.292969 L 592.664062 225.292969 C 596.09375 225.292969 598.792969 227.992188 598.792969 231.421875 L 598.792969 308.523438 C 598.792969 311.957031 596.09375 314.652344 592.664062 314.652344 Z M 592.664062 314.652344 " fill-opacity="1" fill-rule="nonzero"/><path fill="#ffffff" d="M 614.113281 160.328125 L 471.675781 160.328125 C 468.246094 160.328125 465.546875 157.628906 465.546875 154.199219 L 465.546875 118.773438 C 465.546875 115.339844 468.246094 112.644531 471.675781 112.644531 L 614.113281 112.644531 C 617.546875 112.644531 620.242188 115.339844 620.242188 118.773438 L 620.242188 154.199219 C 620.242188 157.628906 617.546875 160.328125 614.113281 160.328125 Z M 477.804688 148.070312 L 607.984375 148.070312 L 607.984375 124.902344 L 477.804688 124.902344 Z M 477.804688 148.070312 " fill-opacity="1" fill-rule="nonzero"/><path fill="#ffffff" d="M 592.664062 237.550781 C 592.664062 237.550781 591.558594 237.550781 591.070312 237.304688 C 587.757812 236.449219 585.921875 233.015625 586.777344 229.707031 L 608.230469 152.605469 C 609.089844 149.292969 612.398438 147.457031 615.832031 148.3125 C 619.140625 149.171875 620.980469 152.605469 620.121094 155.914062 L 598.667969 233.015625 C 597.933594 235.710938 595.480469 237.550781 592.785156 237.550781 Z M 592.664062 237.550781 " fill-opacity="1" fill-rule="nonzero"/><path fill="#ffffff" d="M 450.226562 237.550781 C 450.226562 237.550781 449.121094 237.550781 448.632812 237.304688 C 445.324219 236.449219 443.484375 233.015625 444.34375 229.707031 L 465.792969 152.605469 C 466.652344 149.292969 470.082031 147.457031 473.394531 148.3125 C 476.703125 149.171875 478.542969 152.605469 477.683594 155.914062 L 456.230469 233.015625 C 455.496094 235.710938 453.046875 237.550781 450.347656 237.550781 Z M 450.226562 237.550781 " fill-opacity="1" fill-rule="nonzero"/><path fill="#ffffff" d="M 635.566406 314.652344 C 632.132812 314.652344 629.4375 311.957031 629.4375 308.523438 L 629.4375 232.28125 L 608.230469 155.914062 C 607.371094 152.605469 609.210938 149.292969 612.519531 148.3125 C 615.832031 147.332031 619.140625 149.292969 620.121094 152.605469 L 641.570312 229.828125 C 641.570312 229.828125 641.816406 230.933594 641.816406 231.421875 L 641.816406 308.523438 C 641.816406 311.957031 639.121094 314.652344 635.6875 314.652344 Z M 635.566406 314.652344 " fill-opacity="1" fill-rule="nonzero"/><path fill="#ffffff" d="M 532.109375 216.46875 C 519.117188 216.46875 508.449219 205.804688 508.449219 192.808594 C 508.449219 179.816406 519.117188 169.152344 532.109375 169.152344 C 545.101562 169.152344 555.765625 179.816406 555.765625 192.808594 C 555.765625 205.804688 545.101562 216.46875 532.109375 216.46875 Z M 532.109375 181.410156 C 525.855469 181.410156 520.707031 186.558594 520.707031 192.808594 C 520.707031 199.0625 525.855469 204.210938 532.109375 204.210938 C 538.359375 204.210938 543.507812 199.0625 543.507812 192.808594 C 543.507812 186.558594 538.359375 181.410156 532.109375 181.410156 Z M 532.109375 181.410156 " fill-opacity="1" fill-rule="nonzero"/><g clip-path="url(#63b39c177e)"><path fill="#ffffff" d="M 340.394531 128.210938 L 259.738281 128.210938 C 256.304688 128.210938 253.609375 125.515625 253.609375 122.082031 L 253.609375 104.0625 C 253.609375 87.148438 267.339844 73.417969 284.253906 73.417969 L 315.878906 73.417969 C 332.796875 73.417969 346.523438 87.148438 346.523438 104.0625 L 346.523438 122.082031 C 346.523438 125.515625 343.828125 128.210938 340.394531 128.210938 Z M 265.988281 115.953125 L 334.390625 115.953125 L 334.390625 104.0625 C 334.390625 93.890625 326.175781 85.675781 316.003906 85.675781 L 284.375 85.675781 C 274.203125 85.675781 265.988281 93.890625 265.988281 104.0625 Z M 265.988281 115.953125 " fill-opacity="1" fill-rule="nonzero"/></g><path fill="#ffffff" d="M 169.03125 314.652344 C 166.824219 314.652344 164.738281 313.550781 163.636719 311.464844 C 156.402344 298.226562 154.566406 285.726562 157.996094 274.203125 C 161.0625 264.027344 168.664062 255.082031 178.714844 249.808594 C 184.476562 246.621094 190.847656 245.027344 195.996094 245.273438 C 197.101562 245.273438 198.203125 245.519531 199.429688 245.640625 C 201.390625 245.886719 203.351562 246.132812 204.824219 245.886719 C 206.90625 245.640625 208.867188 245.273438 210.828125 244.660156 C 214.382812 243.558594 217.449219 241.84375 220.269531 239.636719 L 221.863281 238.53125 C 223.085938 237.550781 224.3125 236.203125 225.539062 234.730469 C 225.90625 234.242188 226.273438 233.75 226.640625 233.015625 L 227.867188 230.6875 C 228.601562 229.339844 229.339844 227.867188 230.195312 226.519531 C 236.449219 217.324219 252.015625 208.5 267.460938 209.605469 C 278.371094 210.339844 293.570312 215.976562 304.726562 238.898438 C 317.351562 265.007812 316.371094 291.730469 313.183594 309.503906 C 312.570312 312.816406 309.382812 315.023438 306.074219 314.53125 C 302.761719 313.917969 300.558594 310.730469 301.046875 307.421875 C 303.867188 291.363281 304.847656 267.460938 293.570312 244.171875 C 286.707031 230.074219 277.636719 222.597656 266.480469 221.863281 C 253.976562 221.003906 243.3125 228.847656 240.371094 233.261719 C 239.757812 234.242188 239.269531 235.34375 238.65625 236.449219 L 237.429688 238.898438 C 236.9375 239.878906 236.203125 240.859375 235.46875 241.964844 C 233.382812 244.660156 231.421875 246.621094 229.460938 248.214844 C 228.601562 248.828125 227.992188 249.320312 227.132812 249.808594 C 223.824219 252.507812 219.53125 254.710938 214.507812 256.429688 C 211.6875 257.285156 208.992188 257.898438 206.171875 258.144531 C 203.351562 258.511719 200.53125 258.144531 197.957031 257.898438 C 196.976562 257.898438 196.121094 257.65625 195.140625 257.65625 C 193.054688 257.53125 189.132812 258.265625 184.597656 260.71875 C 177.363281 264.519531 171.972656 270.769531 169.765625 277.878906 C 167.3125 286.09375 168.785156 295.410156 174.421875 305.707031 C 176.015625 308.648438 174.914062 312.449219 171.972656 314.039062 C 170.992188 314.53125 170.011719 314.777344 169.03125 314.777344 Z M 169.03125 314.652344 " fill-opacity="1" fill-rule="nonzero"/><path fill="#ffffff" d="M 181.65625 261.332031 C 180.550781 261.332031 179.449219 261.085938 178.46875 260.472656 C 166.210938 252.996094 158.734375 239.878906 156.160156 221.863281 C 155.792969 219.164062 157.261719 216.46875 159.835938 215.363281 C 192.933594 201.023438 224.4375 213.527344 237.429688 232.527344 C 238.65625 234.363281 238.898438 236.695312 237.917969 238.777344 C 237.304688 240.003906 236.449219 241.230469 235.710938 242.332031 C 233.75 244.660156 231.789062 246.746094 229.707031 248.460938 C 228.972656 249.074219 228.234375 249.5625 227.5 250.054688 C 224.191406 252.75 219.777344 255.082031 214.75 256.675781 C 211.933594 257.53125 209.234375 258.144531 206.417969 258.390625 C 203.597656 258.757812 200.777344 258.390625 198.203125 258.144531 C 197.222656 258.144531 196.363281 257.898438 195.382812 257.898438 C 193.300781 257.898438 189.378906 258.511719 184.84375 260.964844 C 183.863281 261.453125 182.882812 261.699219 181.902344 261.699219 Z M 169.03125 224.804688 C 171.234375 235.34375 175.527344 243.066406 182.144531 248.214844 C 186.925781 246.132812 191.953125 245.152344 195.996094 245.398438 C 197.101562 245.398438 198.328125 245.640625 199.429688 245.765625 C 201.511719 246.007812 203.351562 246.253906 204.824219 246.007812 C 206.90625 245.765625 208.867188 245.398438 210.828125 244.785156 C 214.382812 243.679688 217.449219 241.964844 220.269531 239.757812 C 221.25 239.144531 221.617188 238.777344 221.984375 238.53125 C 222.84375 237.796875 223.824219 236.9375 224.679688 235.957031 C 215.242188 225.660156 194.527344 215.609375 169.152344 224.679688 Z M 169.03125 224.804688 " fill-opacity="1" fill-rule="nonzero"/><path fill="#ffffff" d="M 656.402344 667.066406 L 510.535156 667.066406 C 507.101562 667.066406 504.40625 664.371094 504.40625 660.9375 C 504.40625 657.507812 507.101562 654.808594 510.535156 654.808594 L 650.273438 654.808594 L 650.273438 544.980469 C 650.273438 541.546875 652.847656 538.851562 656.28125 538.851562 C 659.714844 538.851562 662.410156 541.546875 662.410156 544.980469 L 662.410156 660.9375 C 662.410156 662.53125 661.921875 664.125 660.695312 665.230469 C 659.589844 666.332031 657.996094 667.066406 656.402344 667.066406 Z M 656.402344 667.066406 " fill-opacity="1" fill-rule="nonzero"/><path fill="#ffffff" d="M 656.160156 374.226562 C 652.726562 374.226562 650.03125 371.53125 650.03125 368.097656 L 650.03125 314.652344 L 590.457031 314.652344 C 587.023438 314.652344 584.328125 311.957031 584.328125 308.523438 C 584.328125 305.09375 587.023438 302.394531 590.457031 302.394531 L 656.160156 302.394531 C 659.589844 302.394531 662.289062 305.09375 662.289062 308.523438 L 662.289062 368.097656 C 662.289062 371.53125 659.589844 374.226562 656.160156 374.226562 Z M 656.160156 374.226562 " fill-opacity="1" fill-rule="nonzero"/><path fill="#ffffff" d="M 141.695312 543.019531 C 138.261719 543.019531 135.566406 540.320312 135.566406 536.890625 L 135.566406 308.523438 C 135.566406 306.929688 136.054688 305.335938 137.28125 304.234375 C 138.386719 303.132812 139.980469 302.394531 141.570312 302.394531 L 534.558594 302.394531 C 537.992188 302.394531 540.6875 305.09375 540.6875 308.523438 C 540.6875 311.957031 537.992188 314.652344 534.558594 314.652344 L 147.699219 314.652344 L 147.699219 536.890625 C 147.699219 540.320312 145.125 543.019531 141.695312 543.019531 Z M 141.695312 543.019531 " fill-opacity="1" fill-rule="nonzero"/><path fill="#ffffff" d="M 729.707031 462.972656 C 726.273438 462.972656 723.578125 460.277344 723.578125 456.84375 L 723.578125 438.703125 C 723.578125 435.269531 726.273438 432.574219 729.707031 432.574219 C 733.136719 432.574219 735.835938 435.269531 735.835938 438.703125 L 735.835938 456.84375 C 735.835938 460.277344 733.136719 462.972656 729.707031 462.972656 Z M 729.707031 462.972656 " fill-opacity="1" fill-rule="nonzero"/><path fill="#ffffff" d="M 729.707031 551.109375 L 444.097656 551.109375 C 428.652344 551.109375 416.148438 538.605469 416.148438 523.160156 C 416.148438 507.714844 428.652344 495.210938 444.097656 495.210938 C 447.53125 495.210938 450.226562 497.910156 450.226562 501.339844 C 450.226562 504.773438 447.53125 507.46875 444.097656 507.46875 C 435.394531 507.46875 428.40625 514.457031 428.40625 523.160156 C 428.40625 531.863281 435.394531 538.851562 444.097656 538.851562 L 723.578125 538.851562 L 723.578125 499.136719 C 723.578125 495.703125 726.273438 493.007812 729.707031 493.007812 C 733.136719 493.007812 735.835938 495.703125 735.835938 499.136719 L 735.835938 544.980469 C 735.835938 548.410156 733.136719 551.109375 729.707031 551.109375 Z M 729.707031 551.109375 " fill-opacity="1" fill-rule="nonzero"/><path fill="#ffffff" d="M 414.921875 420.4375 C 399.476562 420.4375 386.976562 407.9375 386.976562 392.492188 C 386.976562 377.046875 399.476562 364.664062 414.921875 364.664062 L 560.546875 364.664062 C 559.445312 355.960938 554.539062 348.851562 538.113281 333.285156 C 520.097656 311.835938 530.761719 294.671875 540.445312 283.640625 C 546.082031 277.144531 556.257812 276.285156 563 281.679688 C 580.40625 295.410156 594.992188 304.96875 606.269531 310.242188 C 617.667969 315.511719 628.089844 323.847656 636.914062 335.125 C 642.0625 341.621094 646.964844 348.730469 651.625 356.332031 C 654.933594 361.480469 660.9375 364.664062 667.4375 364.664062 L 729.582031 364.664062 C 733.015625 364.664062 735.710938 367.363281 735.710938 370.792969 L 735.710938 396.414062 C 735.710938 399.847656 733.015625 402.542969 729.582031 402.542969 C 726.152344 402.542969 723.453125 399.847656 723.453125 396.414062 L 723.453125 376.925781 L 667.4375 376.925781 C 656.773438 376.925781 646.71875 371.53125 641.203125 362.828125 C 636.792969 355.59375 632.011719 348.851562 627.230469 342.722656 C 619.507812 332.917969 610.683594 325.808594 601 321.394531 C 588.863281 315.757812 573.417969 305.582031 555.277344 291.363281 C 553.558594 290.015625 550.984375 290.261719 549.515625 291.855469 C 538.113281 304.96875 537.378906 313.671875 546.941406 325.074219 C 567.902344 344.808594 573.296875 354.371094 572.925781 371.039062 C 572.925781 374.351562 570.109375 377.046875 566.796875 377.046875 L 414.800781 377.046875 C 406.097656 377.046875 399.109375 384.035156 399.109375 392.613281 C 399.109375 401.195312 406.097656 408.304688 414.800781 408.304688 C 418.234375 408.304688 420.929688 411 420.929688 414.433594 C 420.929688 417.867188 418.234375 420.5625 414.800781 420.5625 Z M 414.921875 420.4375 " fill-opacity="1" fill-rule="nonzero"/><path fill="#ffffff" d="M 507.46875 507.46875 L 394.941406 507.46875 C 379.621094 507.46875 366.996094 494.96875 366.996094 479.523438 C 366.996094 464.078125 379.496094 451.574219 394.941406 451.574219 C 398.375 451.574219 401.070312 454.269531 401.070312 457.703125 C 401.070312 461.136719 398.375 463.832031 394.941406 463.832031 C 386.363281 463.832031 379.253906 470.820312 379.253906 479.523438 C 379.253906 488.226562 386.238281 495.210938 394.941406 495.210938 L 507.46875 495.210938 C 510.902344 495.210938 513.597656 497.910156 513.597656 501.339844 C 513.597656 504.773438 510.902344 507.46875 507.46875 507.46875 Z M 507.46875 507.46875 " fill-opacity="1" fill-rule="nonzero"/><path fill="#ffffff" d="M 507.46875 463.953125 L 370.792969 463.953125 C 355.472656 463.953125 342.847656 451.453125 342.847656 436.007812 C 342.847656 420.5625 355.351562 408.058594 370.792969 408.058594 L 507.46875 408.058594 C 510.902344 408.058594 513.597656 410.753906 513.597656 414.1875 C 513.597656 417.621094 510.902344 420.316406 507.46875 420.316406 L 370.792969 420.316406 C 362.214844 420.316406 355.105469 427.304688 355.105469 436.007812 C 355.105469 444.710938 362.089844 451.695312 370.792969 451.695312 L 507.46875 451.695312 C 510.902344 451.695312 513.597656 454.394531 513.597656 457.824219 C 513.597656 461.257812 510.902344 463.953125 507.46875 463.953125 Z M 507.46875 463.953125 " fill-opacity="1" fill-rule="nonzero"/><path fill="#ffffff" d="M 74.152344 594.871094 L 147.089844 567.289062 C 156.160156 563.855469 166.210938 563.980469 175.160156 567.78125 L 240.738281 594.625 L 322.5 619.140625 C 327.15625 620.488281 330.957031 623.675781 333.164062 628.089844 C 335.371094 632.378906 335.738281 637.402344 334.144531 641.941406 C 333.652344 643.410156 332.917969 644.882812 332.058594 646.105469 C 331.570312 646.597656 331.203125 647.089844 330.957031 647.578125 C 326.542969 652.726562 319.3125 655.054688 312.449219 652.972656 L 206.660156 621.46875 C 203.351562 620.488281 200.042969 622.328125 199.0625 625.636719 C 198.082031 628.945312 199.917969 632.257812 203.230469 633.238281 L 309.015625 664.738281 C 320.292969 668.171875 332.183594 664.492188 339.660156 656.28125 L 458.5625 640.222656 C 468.613281 638.753906 477.929688 645.496094 479.765625 655.421875 C 481.730469 665.597656 474.988281 675.527344 464.8125 677.488281 L 288.667969 709.601562 C 272.117188 712.667969 255.203125 710.707031 239.757812 704.210938 L 159.222656 670.378906 C 153.09375 667.804688 146.476562 666.457031 139.734375 666.457031 C 134.953125 666.457031 130.050781 667.191406 125.148438 668.539062 L 74.277344 688.765625 L 74.277344 594.992188 Z M 464.8125 701.757812 L 288.542969 733.875 C 272.242188 736.9375 255.324219 735.097656 239.757812 728.601562 L 159.222656 694.769531 C 148.4375 690.359375 136.914062 689.621094 125.023438 692.933594 L 74.152344 713.15625 L 74.152344 701.878906 L 128.945312 680.0625 C 137.28125 677.734375 146.351562 678.222656 154.441406 681.65625 L 234.976562 715.488281 C 247.113281 720.636719 260.105469 723.210938 273.097656 723.210938 C 278.984375 723.210938 284.988281 722.71875 290.875 721.617188 L 467.019531 689.5 C 471.921875 688.519531 476.335938 686.3125 480.136719 683.492188 C 480.136719 692.441406 473.636719 700.164062 464.8125 702.003906 Z M 464.8125 701.757812 " fill-opacity="1" fill-rule="nonzero"/><path fill="#ffffff" d="M 361.96875 277.265625 L 351.671875 277.265625 C 348.242188 277.265625 345.542969 274.449219 345.542969 271.015625 C 345.542969 267.582031 348.242188 264.886719 351.671875 264.886719 L 361.96875 264.886719 C 366.382812 264.886719 370.058594 261.332031 370.058594 256.917969 L 370.058594 203.105469 C 370.058594 199.917969 369.078125 196.976562 367.238281 194.28125 L 329.363281 140.960938 C 326.910156 137.527344 325.5625 133.359375 325.5625 129.191406 L 325.5625 122.082031 C 325.5625 118.648438 328.261719 115.953125 331.691406 115.953125 C 335.125 115.953125 337.820312 118.648438 337.820312 122.082031 L 337.820312 129.191406 C 337.820312 130.90625 338.3125 132.5 339.292969 133.972656 L 377.046875 187.292969 C 380.355469 191.953125 382.070312 197.46875 382.070312 203.105469 L 382.070312 256.917969 C 382.070312 268.074219 373 277.265625 361.722656 277.265625 Z M 361.96875 277.265625 " fill-opacity="1" fill-rule="nonzero"/></svg>