<svg xmlns="http://www.w3.org/2000/svg" xmlns:xlink="http://www.w3.org/1999/xlink" width="1080" zoomAndPan="magnify" viewBox="0 0 810 809.999993" height="1080" preserveAspectRatio="xMidYMid meet" version="1.0"><defs><clipPath id="00d20e2084"><path d="M 158 467 L 652 467 L 652 719.386719 L 158 719.386719 Z M 158 467 " clip-rule="nonzero"/></clipPath><clipPath id="516c99a8b7"><path d="M 90.886719 336 L 719.386719 336 L 719.386719 490 L 90.886719 490 Z M 90.886719 336 " clip-rule="nonzero"/></clipPath><clipPath id="c6a092fc94"><path d="M 629 336 L 719.386719 336 L 719.386719 404 L 629 404 Z M 629 336 " clip-rule="nonzero"/></clipPath><clipPath id="d348f4af12"><path d="M 90.886719 336 L 181 336 L 181 404 L 90.886719 404 Z M 90.886719 336 " clip-rule="nonzero"/></clipPath><clipPath id="55dbbb9645"><path d="M 583 90.886719 L 648 90.886719 L 648 192 L 583 192 Z M 583 90.886719 " clip-rule="nonzero"/></clipPath><clipPath id="d37e77e8ce"><path d="M 618 135 L 719.386719 135 L 719.386719 199 L 618 199 Z M 618 135 " clip-rule="nonzero"/></clipPath></defs><g clip-path="url(#00d20e2084)"><path fill="#ffffff" d="M 593.511719 719.105469 L 216.480469 719.105469 C 214.574219 719.101562 212.667969 719.003906 210.769531 718.816406 C 208.871094 718.628906 206.988281 718.347656 205.113281 717.972656 C 203.242188 717.597656 201.394531 717.132812 199.570312 716.578125 C 197.742188 716.023438 195.949219 715.378906 194.1875 714.648438 C 192.425781 713.917969 190.703125 713.101562 189.019531 712.199219 C 187.335938 711.300781 185.703125 710.320312 184.117188 709.257812 C 182.527344 708.199219 181 707.0625 179.523438 705.851562 C 178.046875 704.640625 176.636719 703.359375 175.285156 702.011719 C 173.9375 700.660156 172.65625 699.25 171.445312 697.773438 C 170.234375 696.300781 169.097656 694.769531 168.039062 693.183594 C 166.976562 691.597656 165.996094 689.960938 165.097656 688.277344 C 164.195312 686.597656 163.382812 684.875 162.648438 683.109375 C 161.917969 681.347656 161.273438 679.554688 160.71875 677.726562 C 160.164062 675.902344 159.699219 674.054688 159.324219 672.183594 C 158.953125 670.3125 158.671875 668.425781 158.480469 666.527344 C 158.292969 664.628906 158.195312 662.726562 158.195312 660.816406 L 158.195312 478.644531 C 158.195312 477.910156 158.265625 477.179688 158.410156 476.457031 C 158.554688 475.734375 158.765625 475.035156 159.046875 474.351562 C 159.328125 473.671875 159.675781 473.027344 160.085938 472.414062 C 160.492188 471.800781 160.960938 471.234375 161.480469 470.714844 C 162 470.191406 162.566406 469.726562 163.179688 469.320312 C 163.792969 468.910156 164.4375 468.5625 165.121094 468.28125 C 165.800781 468 166.5 467.789062 167.222656 467.644531 C 167.945312 467.5 168.675781 467.429688 169.414062 467.429688 C 170.148438 467.429688 170.878906 467.5 171.601562 467.644531 C 172.324219 467.789062 173.023438 468 173.707031 468.28125 C 174.386719 468.5625 175.03125 468.910156 175.644531 469.320312 C 176.257812 469.726562 176.824219 470.191406 177.34375 470.714844 C 177.867188 471.234375 178.332031 471.800781 178.738281 472.414062 C 179.148438 473.027344 179.496094 473.671875 179.777344 474.351562 C 180.058594 475.035156 180.269531 475.734375 180.414062 476.457031 C 180.558594 477.179688 180.628906 477.910156 180.628906 478.644531 L 180.628906 660.816406 C 180.632812 661.988281 180.691406 663.160156 180.808594 664.328125 C 180.921875 665.496094 181.097656 666.65625 181.324219 667.808594 C 181.554688 668.957031 181.84375 670.097656 182.183594 671.21875 C 182.523438 672.34375 182.921875 673.445312 183.371094 674.53125 C 183.820312 675.613281 184.320312 676.671875 184.875 677.707031 C 185.429688 678.742188 186.03125 679.75 186.683594 680.722656 C 187.335938 681.699219 188.035156 682.640625 188.78125 683.550781 C 189.527344 684.457031 190.3125 685.324219 191.144531 686.15625 C 191.972656 686.984375 192.839844 687.773438 193.75 688.515625 C 194.65625 689.261719 195.597656 689.960938 196.574219 690.613281 C 197.550781 691.265625 198.554688 691.867188 199.589844 692.421875 C 200.625 692.976562 201.683594 693.476562 202.769531 693.925781 C 203.851562 694.378906 204.957031 694.773438 206.078125 695.113281 C 207.203125 695.457031 208.339844 695.742188 209.492188 695.972656 C 210.640625 696.203125 211.800781 696.375 212.96875 696.492188 C 214.136719 696.605469 215.308594 696.667969 216.480469 696.667969 L 593.511719 696.667969 C 594.6875 696.664062 595.855469 696.605469 597.023438 696.492188 C 598.191406 696.375 599.351562 696.203125 600.503906 695.972656 C 601.65625 695.742188 602.792969 695.457031 603.914062 695.113281 C 605.035156 694.773438 606.140625 694.375 607.222656 693.925781 C 608.308594 693.476562 609.367188 692.976562 610.402344 692.421875 C 611.4375 691.867188 612.441406 691.265625 613.417969 690.613281 C 614.394531 689.960938 615.335938 689.261719 616.242188 688.515625 C 617.148438 687.769531 618.019531 686.984375 618.847656 686.152344 C 619.679688 685.324219 620.464844 684.453125 621.210938 683.546875 C 621.953125 682.640625 622.652344 681.699219 623.304688 680.722656 C 623.957031 679.746094 624.5625 678.742188 625.113281 677.707031 C 625.667969 676.671875 626.167969 675.613281 626.621094 674.527344 C 627.070312 673.445312 627.464844 672.339844 627.804688 671.21875 C 628.148438 670.09375 628.433594 668.957031 628.664062 667.808594 C 628.894531 666.65625 629.066406 665.496094 629.183594 664.328125 C 629.296875 663.160156 629.355469 661.988281 629.359375 660.816406 L 629.359375 478.644531 C 629.359375 477.910156 629.429688 477.179688 629.574219 476.457031 C 629.71875 475.734375 629.929688 475.035156 630.210938 474.351562 C 630.492188 473.671875 630.839844 473.027344 631.25 472.414062 C 631.65625 471.800781 632.121094 471.234375 632.644531 470.714844 C 633.164062 470.191406 633.730469 469.726562 634.34375 469.320312 C 634.957031 468.910156 635.601562 468.5625 636.285156 468.28125 C 636.964844 468 637.664062 467.789062 638.386719 467.644531 C 639.109375 467.5 639.839844 467.429688 640.578125 467.429688 C 641.3125 467.429688 642.042969 467.5 642.765625 467.644531 C 643.488281 467.789062 644.1875 468 644.871094 468.28125 C 645.550781 468.5625 646.195312 468.910156 646.808594 469.320312 C 647.421875 469.726562 647.988281 470.191406 648.507812 470.714844 C 649.03125 471.234375 649.496094 471.800781 649.902344 472.414062 C 650.3125 473.027344 650.660156 473.671875 650.941406 474.351562 C 651.222656 475.035156 651.433594 475.734375 651.578125 476.457031 C 651.722656 477.179688 651.792969 477.910156 651.792969 478.644531 L 651.792969 660.816406 C 651.792969 662.722656 651.695312 664.628906 651.507812 666.527344 C 651.320312 668.425781 651.039062 670.3125 650.664062 672.183594 C 650.289062 674.054688 649.824219 675.902344 649.269531 677.726562 C 648.714844 679.554688 648.070312 681.347656 647.339844 683.109375 C 646.609375 684.871094 645.792969 686.59375 644.894531 688.277344 C 643.992188 689.960938 643.011719 691.59375 641.953125 693.179688 C 640.890625 694.765625 639.753906 696.296875 638.542969 697.773438 C 637.332031 699.25 636.054688 700.660156 634.703125 702.011719 C 633.355469 703.359375 631.941406 704.640625 630.46875 705.851562 C 628.992188 707.0625 627.464844 708.195312 625.875 709.257812 C 624.289062 710.316406 622.65625 711.300781 620.972656 712.199219 C 619.289062 713.101562 617.570312 713.914062 615.804688 714.648438 C 614.042969 715.378906 612.25 716.023438 610.421875 716.578125 C 608.597656 717.132812 606.75 717.597656 604.878906 717.972656 C 603.007812 718.34375 601.121094 718.628906 599.222656 718.816406 C 597.324219 719.003906 595.421875 719.101562 593.511719 719.105469 Z M 593.511719 719.105469 " fill-opacity="1" fill-rule="nonzero"/></g><g clip-path="url(#516c99a8b7)"><path fill="#ffffff" d="M 707.886719 489.863281 L 102.101562 489.863281 C 101.625 489.863281 101.148438 489.832031 100.671875 489.773438 C 100.199219 489.710938 99.726562 489.621094 99.265625 489.5 C 98.800781 489.378906 98.347656 489.226562 97.902344 489.046875 C 97.460938 488.867188 97.027344 488.660156 96.613281 488.425781 C 96.195312 488.191406 95.792969 487.933594 95.410156 487.644531 C 95.023438 487.359375 94.660156 487.050781 94.316406 486.71875 C 93.972656 486.386719 93.648438 486.03125 93.351562 485.660156 C 93.050781 485.285156 92.777344 484.894531 92.527344 484.484375 C 92.277344 484.074219 92.054688 483.652344 91.859375 483.214844 C 91.664062 482.777344 91.5 482.332031 91.363281 481.871094 C 91.222656 481.414062 91.117188 480.945312 91.039062 480.476562 C 90.960938 480.003906 90.914062 479.527344 90.894531 479.046875 C 90.878906 478.570312 90.890625 478.09375 90.933594 477.613281 C 90.980469 477.136719 91.054688 476.664062 91.15625 476.199219 C 91.261719 475.730469 91.398438 475.273438 91.558594 474.824219 C 91.722656 474.371094 91.914062 473.933594 92.132812 473.507812 L 159.441406 342.910156 C 159.914062 341.996094 160.5 341.160156 161.203125 340.40625 C 161.902344 339.652344 162.695312 339.007812 163.574219 338.46875 C 164.453125 337.933594 165.386719 337.527344 166.378906 337.246094 C 167.371094 336.96875 168.382812 336.832031 169.414062 336.832031 L 640.578125 336.832031 C 641.605469 336.832031 642.617188 336.96875 643.609375 337.246094 C 644.601562 337.527344 645.535156 337.933594 646.414062 338.46875 C 647.296875 339.007812 648.085938 339.652344 648.785156 340.40625 C 649.488281 341.160156 650.074219 341.996094 650.546875 342.910156 L 717.855469 473.507812 C 718.074219 473.933594 718.265625 474.371094 718.429688 474.824219 C 718.59375 475.273438 718.726562 475.730469 718.832031 476.199219 C 718.933594 476.664062 719.007812 477.136719 719.054688 477.613281 C 719.097656 478.09375 719.109375 478.570312 719.09375 479.046875 C 719.078125 479.527344 719.027344 480.003906 718.949219 480.476562 C 718.871094 480.945312 718.765625 481.414062 718.628906 481.871094 C 718.488281 482.332031 718.324219 482.777344 718.128906 483.214844 C 717.933594 483.652344 717.710938 484.074219 717.460938 484.484375 C 717.210938 484.894531 716.9375 485.285156 716.640625 485.660156 C 716.339844 486.03125 716.015625 486.386719 715.671875 486.71875 C 715.328125 487.050781 714.964844 487.359375 714.578125 487.644531 C 714.195312 487.933594 713.792969 488.191406 713.378906 488.425781 C 712.960938 488.660156 712.527344 488.867188 712.085938 489.046875 C 711.640625 489.226562 711.1875 489.378906 710.722656 489.5 C 710.261719 489.621094 709.792969 489.710938 709.316406 489.773438 C 708.839844 489.832031 708.363281 489.863281 707.886719 489.863281 Z M 120.507812 467.429688 L 689.480469 467.429688 L 633.738281 359.265625 L 176.25 359.265625 Z M 120.507812 467.429688 " fill-opacity="1" fill-rule="nonzero"/></g><g clip-path="url(#c6a092fc94)"><path fill="#ffffff" d="M 707.875 403.164062 C 705.652344 403.167969 703.617188 402.5625 701.761719 401.339844 L 634.453125 357.441406 C 633.8125 357.050781 633.21875 356.597656 632.671875 356.089844 C 632.121094 355.578125 631.628906 355.015625 631.195312 354.40625 C 630.757812 353.796875 630.386719 353.152344 630.082031 352.46875 C 629.773438 351.78125 629.539062 351.074219 629.375 350.34375 C 629.210938 349.613281 629.121094 348.871094 629.101562 348.125 C 629.085938 347.375 629.144531 346.628906 629.277344 345.894531 C 629.410156 345.15625 629.617188 344.4375 629.890625 343.742188 C 630.167969 343.042969 630.511719 342.382812 630.921875 341.753906 C 631.332031 341.125 631.796875 340.546875 632.324219 340.011719 C 632.847656 339.476562 633.421875 339 634.042969 338.582031 C 634.664062 338.160156 635.324219 337.808594 636.015625 337.519531 C 636.707031 337.234375 637.421875 337.015625 638.15625 336.871094 C 638.890625 336.726562 639.632812 336.65625 640.382812 336.664062 C 641.132812 336.667969 641.875 336.746094 642.609375 336.898438 C 643.34375 337.050781 644.054688 337.277344 644.742188 337.570312 C 645.429688 337.867188 646.085938 338.226562 646.699219 338.65625 L 714.007812 382.550781 C 714.511719 382.878906 714.984375 383.246094 715.429688 383.652344 C 715.875 384.054688 716.28125 384.492188 716.65625 384.960938 C 717.03125 385.433594 717.363281 385.929688 717.660156 386.453125 C 717.953125 386.976562 718.203125 387.519531 718.410156 388.082031 C 718.617188 388.648438 718.777344 389.222656 718.890625 389.8125 C 719.003906 390.402344 719.070312 390.996094 719.089844 391.597656 C 719.109375 392.199219 719.078125 392.796875 719.003906 393.390625 C 718.925781 393.984375 718.800781 394.570312 718.628906 395.148438 C 718.457031 395.722656 718.242188 396.28125 717.980469 396.820312 C 717.71875 397.363281 717.417969 397.878906 717.074219 398.371094 C 716.730469 398.863281 716.351562 399.324219 715.933594 399.753906 C 715.511719 400.1875 715.0625 400.582031 714.582031 400.941406 C 714.101562 401.300781 713.59375 401.617188 713.0625 401.894531 C 712.53125 402.171875 711.976562 402.40625 711.40625 402.59375 C 710.839844 402.785156 710.257812 402.925781 709.664062 403.023438 C 709.070312 403.117188 708.476562 403.164062 707.875 403.164062 Z M 707.875 403.164062 " fill-opacity="1" fill-rule="nonzero"/></g><g clip-path="url(#d348f4af12)"><path fill="#ffffff" d="M 102.113281 403.164062 C 101.515625 403.164062 100.917969 403.117188 100.324219 403.019531 C 99.734375 402.925781 99.152344 402.785156 98.582031 402.59375 C 98.011719 402.40625 97.460938 402.171875 96.929688 401.894531 C 96.398438 401.617188 95.890625 401.300781 95.410156 400.941406 C 94.929688 400.582031 94.480469 400.1875 94.0625 399.757812 C 93.644531 399.324219 93.261719 398.863281 92.917969 398.371094 C 92.574219 397.878906 92.273438 397.363281 92.011719 396.824219 C 91.75 396.285156 91.535156 395.726562 91.363281 395.148438 C 91.191406 394.574219 91.066406 393.988281 90.988281 393.394531 C 90.914062 392.800781 90.882812 392.203125 90.902344 391.601562 C 90.917969 391.003906 90.984375 390.40625 91.097656 389.820312 C 91.214844 389.230469 91.375 388.652344 91.578125 388.089844 C 91.785156 387.527344 92.035156 386.980469 92.328125 386.457031 C 92.625 385.933594 92.957031 385.4375 93.328125 384.96875 C 93.703125 384.5 94.113281 384.0625 94.554688 383.65625 C 95 383.253906 95.472656 382.886719 95.972656 382.558594 L 163.28125 338.660156 C 163.898438 338.269531 164.546875 337.945312 165.230469 337.679688 C 165.910156 337.417969 166.609375 337.222656 167.328125 337.09375 C 168.046875 336.96875 168.769531 336.910156 169.5 336.925781 C 170.230469 336.941406 170.953125 337.027344 171.664062 337.179688 C 172.378906 337.335938 173.070312 337.558594 173.738281 337.851562 C 174.410156 338.140625 175.042969 338.492188 175.644531 338.90625 C 176.246094 339.320312 176.800781 339.789062 177.308594 340.3125 C 177.820312 340.835938 178.273438 341.402344 178.671875 342.011719 C 179.070312 342.625 179.40625 343.265625 179.679688 343.945312 C 179.953125 344.621094 180.160156 345.316406 180.296875 346.035156 C 180.433594 346.75 180.5 347.476562 180.496094 348.203125 C 180.492188 348.933594 180.417969 349.65625 180.269531 350.371094 C 180.125 351.085938 179.914062 351.78125 179.632812 352.457031 C 179.351562 353.128906 179.007812 353.769531 178.605469 354.375 C 178.199219 354.984375 177.738281 355.542969 177.222656 356.0625 C 176.707031 356.578125 176.148438 357.039062 175.542969 357.449219 L 108.234375 401.347656 C 106.375 402.5625 104.335938 403.167969 102.113281 403.164062 Z M 102.113281 403.164062 " fill-opacity="1" fill-rule="nonzero"/></g><path fill="#ffffff" d="M 587.515625 359.222656 C 586.390625 359.222656 585.289062 359.058594 584.214844 358.726562 C 583.136719 358.398438 582.136719 357.914062 581.203125 357.28125 C 580.273438 356.648438 579.457031 355.894531 578.753906 355.015625 C 578.050781 354.136719 577.492188 353.175781 577.078125 352.128906 C 576.664062 351.082031 576.414062 350 576.328125 348.875 C 576.242188 347.753906 576.320312 346.644531 576.566406 345.546875 C 576.8125 344.449219 577.214844 343.410156 577.777344 342.433594 C 578.335938 341.457031 579.023438 340.585938 579.84375 339.816406 C 597.445312 323.316406 612.589844 304.804688 625.277344 284.285156 C 641.613281 257.546875 647.96875 234.085938 643.675781 216.4375 C 643.25 214.957031 642.753906 213.503906 642.179688 212.078125 C 641.605469 210.652344 640.964844 209.257812 640.25 207.894531 C 639.535156 206.53125 638.753906 205.210938 637.90625 203.925781 C 637.058594 202.644531 636.148438 201.410156 635.175781 200.21875 C 634.203125 199.027344 633.171875 197.890625 632.082031 196.804688 C 630.992188 195.71875 629.851562 194.6875 628.660156 193.71875 C 627.46875 192.75 626.226562 191.839844 624.941406 190.996094 C 623.660156 190.152344 622.335938 189.375 620.96875 188.664062 C 619.605469 187.953125 618.210938 187.3125 616.78125 186.742188 C 615.351562 186.175781 613.898438 185.679688 612.421875 185.257812 C 610.941406 184.835938 609.445312 184.488281 607.933594 184.21875 C 606.417969 183.949219 604.894531 183.757812 603.359375 183.640625 C 601.828125 183.523438 600.292969 183.488281 598.753906 183.527344 C 597.21875 183.566406 595.6875 183.683594 594.160156 183.878906 C 592.636719 184.074219 591.125 184.347656 589.625 184.695312 C 588.128906 185.042969 586.652344 185.464844 585.199219 185.964844 C 569.203125 192.085938 553.613281 207.4375 538.878906 231.574219 C 530.082031 246.210938 522.769531 261.554688 516.945312 277.605469 C 516.707031 278.316406 516.402344 278.996094 516.027344 279.648438 C 515.652344 280.296875 515.21875 280.902344 514.722656 281.464844 C 514.226562 282.027344 513.679688 282.535156 513.082031 282.988281 C 512.484375 283.441406 511.84375 283.832031 511.167969 284.15625 C 510.492188 284.480469 509.792969 284.738281 509.066406 284.921875 C 508.335938 285.105469 507.597656 285.214844 506.847656 285.253906 C 506.101562 285.289062 505.355469 285.25 504.613281 285.136719 C 503.871094 285.023438 503.148438 284.839844 502.445312 284.578125 C 501.738281 284.320312 501.066406 283.996094 500.429688 283.601562 C 499.789062 283.210938 499.195312 282.757812 498.648438 282.246094 C 498.101562 281.730469 497.609375 281.171875 497.171875 280.558594 C 496.738281 279.949219 496.367188 279.300781 496.0625 278.617188 C 495.753906 277.929688 495.519531 277.222656 495.359375 276.488281 C 495.195312 275.757812 495.105469 275.015625 495.089844 274.265625 C 495.078125 273.515625 495.136719 272.773438 495.269531 272.035156 C 495.40625 271.296875 495.613281 270.578125 495.890625 269.882812 C 502.195312 252.433594 510.144531 235.769531 519.730469 219.886719 C 537.117188 191.414062 556.441406 172.949219 577.179688 165.011719 C 579.535156 164.09375 581.933594 163.320312 584.382812 162.683594 C 586.828125 162.050781 589.304688 161.566406 591.808594 161.226562 C 594.3125 160.886719 596.828125 160.695312 599.355469 160.65625 C 601.882812 160.613281 604.402344 160.722656 606.917969 160.980469 C 609.429688 161.238281 611.921875 161.644531 614.386719 162.195312 C 616.855469 162.75 619.277344 163.445312 621.660156 164.285156 C 624.046875 165.125 626.371094 166.101562 628.636719 167.21875 C 630.90625 168.335938 633.101562 169.582031 635.21875 170.957031 C 638.960938 173.121094 642.449219 175.632812 645.683594 178.496094 C 648.917969 181.359375 651.835938 184.515625 654.433594 187.96875 C 657.03125 191.417969 659.261719 195.09375 661.121094 198.992188 C 662.980469 202.894531 664.433594 206.9375 665.480469 211.128906 C 671.289062 235.035156 664.210938 263.578125 644.4375 295.960938 C 630.679688 318.21875 614.257812 338.292969 595.175781 356.195312 C 594.140625 357.167969 592.957031 357.917969 591.636719 358.441406 C 590.3125 358.964844 588.9375 359.226562 587.515625 359.222656 Z M 587.515625 359.222656 " fill-opacity="1" fill-rule="nonzero"/><g clip-path="url(#55dbbb9645)"><path fill="#ffffff" d="M 629.324219 191.699219 C 627.769531 191.699219 626.277344 191.390625 624.851562 190.769531 C 623.425781 190.148438 622.179688 189.269531 621.121094 188.132812 C 613.671875 180.136719 576.894531 138.886719 585.066406 111.625 C 585.46875 110.371094 585.957031 109.148438 586.53125 107.957031 C 587.105469 106.769531 587.757812 105.625 588.488281 104.527344 C 589.21875 103.429688 590.019531 102.386719 590.894531 101.398438 C 591.769531 100.410156 592.707031 99.484375 593.710938 98.628906 C 594.714844 97.769531 595.769531 96.984375 596.882812 96.273438 C 597.992188 95.558594 599.144531 94.925781 600.34375 94.375 C 601.542969 93.820312 602.773438 93.351562 604.035156 92.96875 C 605.300781 92.585938 606.582031 92.292969 607.886719 92.085938 C 609.136719 91.671875 610.414062 91.34375 611.710938 91.105469 C 613.007812 90.867188 614.316406 90.71875 615.636719 90.660156 C 616.953125 90.601562 618.269531 90.632812 619.582031 90.757812 C 620.898438 90.882812 622.195312 91.09375 623.480469 91.398438 C 624.765625 91.703125 626.023438 92.09375 627.25 92.570312 C 628.480469 93.050781 629.671875 93.609375 630.824219 94.25 C 631.980469 94.894531 633.082031 95.613281 634.132812 96.410156 C 635.1875 97.203125 636.179688 98.066406 637.113281 99 C 656.867188 119.488281 643.085938 173.007812 640.128906 183.527344 C 639.960938 184.109375 639.75 184.675781 639.492188 185.226562 C 639.234375 185.777344 638.9375 186.304688 638.59375 186.804688 C 638.25 187.304688 637.871094 187.777344 637.453125 188.214844 C 637.03125 188.65625 636.582031 189.058594 636.097656 189.425781 C 635.613281 189.792969 635.101562 190.117188 634.566406 190.402344 C 634.027344 190.683594 633.472656 190.921875 632.898438 191.117188 C 632.320312 191.3125 631.734375 191.457031 631.136719 191.554688 C 630.535156 191.652344 629.933594 191.703125 629.324219 191.703125 Z M 617.253906 113.320312 C 615.867188 113.347656 614.507812 113.535156 613.164062 113.882812 C 607.394531 115.285156 606.773438 117.371094 606.5625 118.0625 C 604.480469 124.992188 612.3125 140.433594 623.257812 155.460938 C 626.09375 137.085938 625.984375 119.777344 620.957031 114.566406 C 620.464844 114.089844 619.894531 113.742188 619.246094 113.523438 C 618.597656 113.304688 617.933594 113.238281 617.253906 113.320312 Z M 617.253906 113.320312 " fill-opacity="1" fill-rule="nonzero"/></g><g clip-path="url(#d37e77e8ce)"><path fill="#ffffff" d="M 675.164062 198.71875 C 658.554688 198.285156 642.261719 195.804688 626.28125 191.277344 C 625.324219 191.007812 624.417969 190.617188 623.5625 190.105469 C 622.710938 189.59375 621.9375 188.980469 621.25 188.265625 C 620.558594 187.546875 619.972656 186.753906 619.496094 185.882812 C 619.015625 185.007812 618.660156 184.089844 618.425781 183.121094 C 618.191406 182.15625 618.089844 181.175781 618.117188 180.179688 C 618.144531 179.1875 618.300781 178.210938 618.585938 177.257812 C 618.871094 176.304688 619.277344 175.40625 619.800781 174.5625 C 620.328125 173.71875 620.953125 172.957031 621.679688 172.277344 C 629.667969 164.820312 670.914062 128.046875 698.183594 136.21875 C 699.4375 136.621094 700.660156 137.109375 701.851562 137.683594 C 703.039062 138.253906 704.183594 138.90625 705.28125 139.636719 C 706.378906 140.367188 707.421875 141.171875 708.410156 142.042969 C 709.398438 142.917969 710.324219 143.859375 711.183594 144.859375 C 712.039062 145.863281 712.824219 146.917969 713.539062 148.027344 C 714.25 149.140625 714.882812 150.292969 715.4375 151.492188 C 715.992188 152.691406 716.457031 153.921875 716.84375 155.183594 C 717.226562 156.445312 717.519531 157.730469 717.726562 159.03125 C 718.140625 160.285156 718.46875 161.558594 718.707031 162.859375 C 718.945312 164.15625 719.09375 165.464844 719.152344 166.78125 C 719.210938 168.101562 719.175781 169.417969 719.050781 170.730469 C 718.929688 172.046875 718.714844 173.34375 718.410156 174.628906 C 718.105469 175.914062 717.714844 177.171875 717.238281 178.402344 C 716.761719 179.632812 716.199219 180.824219 715.558594 181.976562 C 714.917969 183.128906 714.199219 184.230469 713.402344 185.285156 C 712.609375 186.339844 711.746094 187.332031 710.8125 188.265625 C 708.292969 190.199219 705.617188 191.882812 702.78125 193.320312 C 699.949219 194.757812 697.011719 195.925781 693.960938 196.820312 C 690.914062 197.710938 687.808594 198.320312 684.648438 198.636719 C 681.488281 198.957031 678.328125 198.984375 675.164062 198.71875 Z M 654.335938 174.414062 C 672.71875 177.257812 690.039062 177.148438 695.242188 172.113281 C 695.757812 171.621094 697.324219 170.101562 695.921875 164.324219 C 694.519531 158.546875 692.429688 157.921875 691.75 157.710938 C 684.757812 155.613281 669.367188 163.464844 654.335938 174.414062 Z M 654.335938 174.414062 " fill-opacity="1" fill-rule="nonzero"/></g><path fill="#ffffff" d="M 591.933594 238.484375 C 589.835938 238.488281 587.890625 237.945312 586.101562 236.847656 L 541.945312 209.929688 C 541.316406 209.546875 540.734375 209.105469 540.191406 208.605469 C 539.652344 208.105469 539.164062 207.558594 538.730469 206.964844 C 538.296875 206.371094 537.925781 205.738281 537.617188 205.070312 C 537.304688 204.402344 537.066406 203.710938 536.890625 202.996094 C 536.71875 202.28125 536.617188 201.554688 536.585938 200.820312 C 536.558594 200.085938 536.597656 199.351562 536.710938 198.625 C 536.824219 197.898438 537.007812 197.1875 537.261719 196.496094 C 537.515625 195.804688 537.832031 195.148438 538.214844 194.519531 C 538.601562 193.890625 539.039062 193.304688 539.539062 192.761719 C 540.035156 192.222656 540.582031 191.734375 541.175781 191.296875 C 541.773438 190.863281 542.402344 190.492188 543.070312 190.183594 C 543.738281 189.871094 544.429688 189.628906 545.144531 189.457031 C 545.859375 189.28125 546.585938 189.179688 547.320312 189.148438 C 548.054688 189.117188 548.789062 189.15625 549.515625 189.269531 C 550.242188 189.382812 550.953125 189.566406 551.644531 189.816406 C 552.335938 190.070312 552.996094 190.386719 553.625 190.769531 L 597.785156 217.6875 C 598.304688 218.003906 598.792969 218.359375 599.253906 218.753906 C 599.714844 219.152344 600.144531 219.582031 600.535156 220.046875 C 600.925781 220.511719 601.277344 221.007812 601.585938 221.527344 C 601.898438 222.050781 602.164062 222.59375 602.386719 223.160156 C 602.609375 223.726562 602.785156 224.304688 602.914062 224.902344 C 603.042969 225.496094 603.121094 226.097656 603.152344 226.703125 C 603.183594 227.308594 603.164062 227.914062 603.097656 228.519531 C 603.027344 229.125 602.910156 229.71875 602.746094 230.304688 C 602.582031 230.890625 602.371094 231.457031 602.113281 232.007812 C 601.859375 232.558594 601.558594 233.085938 601.214844 233.589844 C 600.875 234.089844 600.492188 234.5625 600.074219 235 C 599.652344 235.441406 599.203125 235.847656 598.71875 236.210938 C 598.234375 236.578125 597.722656 236.90625 597.183594 237.1875 C 596.644531 237.472656 596.089844 237.710938 595.511719 237.902344 C 594.9375 238.097656 594.347656 238.242188 593.746094 238.339844 C 593.148438 238.4375 592.542969 238.484375 591.933594 238.484375 Z M 591.933594 238.484375 " fill-opacity="1" fill-rule="nonzero"/><path fill="#ffffff" d="M 563.375 285.324219 C 561.277344 285.328125 559.332031 284.78125 557.542969 283.6875 L 512.148438 256.015625 C 511.519531 255.632812 510.933594 255.191406 510.390625 254.695312 C 509.847656 254.195312 509.359375 253.648438 508.925781 253.054688 C 508.492188 252.457031 508.121094 251.828125 507.808594 251.160156 C 507.5 250.488281 507.257812 249.796875 507.085938 249.082031 C 506.910156 248.367188 506.808594 247.640625 506.777344 246.902344 C 506.746094 246.167969 506.789062 245.4375 506.902344 244.707031 C 507.015625 243.980469 507.199219 243.269531 507.453125 242.578125 C 507.707031 241.886719 508.023438 241.226562 508.40625 240.597656 C 508.789062 239.96875 509.230469 239.382812 509.730469 238.839844 C 510.230469 238.296875 510.777344 237.808594 511.371094 237.375 C 511.964844 236.941406 512.597656 236.570312 513.265625 236.257812 C 513.933594 235.949219 514.625 235.707031 515.34375 235.535156 C 516.058594 235.359375 516.785156 235.257812 517.519531 235.226562 C 518.257812 235.195312 518.988281 235.238281 519.714844 235.351562 C 520.445312 235.464844 521.152344 235.648438 521.84375 235.902344 C 522.535156 236.15625 523.199219 236.472656 523.828125 236.855469 L 569.230469 264.527344 C 569.746094 264.84375 570.238281 265.199219 570.699219 265.59375 C 571.160156 265.992188 571.585938 266.421875 571.976562 266.886719 C 572.371094 267.351562 572.71875 267.84375 573.03125 268.367188 C 573.34375 268.890625 573.609375 269.433594 573.832031 270 C 574.054688 270.566406 574.230469 271.144531 574.359375 271.738281 C 574.484375 272.335938 574.566406 272.933594 574.597656 273.542969 C 574.625 274.148438 574.609375 274.753906 574.539062 275.359375 C 574.472656 275.964844 574.355469 276.558594 574.191406 277.144531 C 574.027344 277.726562 573.816406 278.296875 573.558594 278.847656 C 573.300781 279.398438 573.003906 279.925781 572.660156 280.425781 C 572.316406 280.929688 571.9375 281.402344 571.515625 281.839844 C 571.097656 282.28125 570.644531 282.683594 570.160156 283.050781 C 569.675781 283.417969 569.164062 283.742188 568.628906 284.027344 C 568.089844 284.3125 567.53125 284.550781 566.957031 284.742188 C 566.378906 284.9375 565.792969 285.082031 565.191406 285.179688 C 564.589844 285.277344 563.988281 285.324219 563.378906 285.324219 Z M 563.375 285.324219 " fill-opacity="1" fill-rule="nonzero"/><path fill="#ffffff" d="M 506.40625 359.222656 C 505.671875 359.222656 504.941406 359.152344 504.21875 359.007812 C 503.496094 358.863281 502.792969 358.652344 502.113281 358.371094 C 501.433594 358.089844 500.785156 357.742188 500.175781 357.332031 C 499.5625 356.925781 498.996094 356.460938 498.472656 355.9375 C 497.953125 355.417969 497.488281 354.851562 497.078125 354.238281 C 496.671875 353.625 496.324219 352.980469 496.042969 352.300781 C 495.761719 351.617188 495.546875 350.917969 495.402344 350.195312 C 495.261719 349.472656 495.1875 348.742188 495.1875 348.007812 L 495.1875 180.628906 L 356.757812 180.628906 L 356.757812 348.007812 C 356.757812 348.742188 356.683594 349.472656 356.539062 350.195312 C 356.398438 350.917969 356.183594 351.617188 355.902344 352.300781 C 355.621094 352.980469 355.273438 353.625 354.867188 354.238281 C 354.457031 354.851562 353.992188 355.417969 353.46875 355.9375 C 352.949219 356.460938 352.382812 356.925781 351.769531 357.332031 C 351.15625 357.742188 350.511719 358.089844 349.832031 358.371094 C 349.152344 358.652344 348.449219 358.863281 347.726562 359.007812 C 347.003906 359.152344 346.273438 359.222656 345.539062 359.222656 C 344.800781 359.222656 344.070312 359.152344 343.347656 359.007812 C 342.628906 358.863281 341.925781 358.652344 341.246094 358.371094 C 340.5625 358.089844 339.917969 357.742188 339.304688 357.332031 C 338.691406 356.925781 338.125 356.460938 337.605469 355.9375 C 337.085938 355.417969 336.621094 354.851562 336.210938 354.238281 C 335.800781 353.625 335.457031 352.980469 335.171875 352.300781 C 334.890625 351.617188 334.679688 350.917969 334.535156 350.195312 C 334.390625 349.472656 334.320312 348.742188 334.320312 348.007812 L 334.320312 169.414062 C 334.320312 168.675781 334.390625 167.945312 334.535156 167.222656 C 334.679688 166.5 334.890625 165.800781 335.171875 165.121094 C 335.457031 164.4375 335.800781 163.792969 336.210938 163.179688 C 336.621094 162.566406 337.085938 162 337.605469 161.480469 C 338.125 160.960938 338.691406 160.492188 339.304688 160.085938 C 339.917969 159.675781 340.566406 159.328125 341.246094 159.046875 C 341.925781 158.765625 342.628906 158.554688 343.347656 158.410156 C 344.070312 158.265625 344.800781 158.195312 345.539062 158.195312 L 506.40625 158.195312 C 507.144531 158.195312 507.871094 158.265625 508.59375 158.410156 C 509.316406 158.554688 510.019531 158.765625 510.699219 159.046875 C 511.378906 159.328125 512.027344 159.675781 512.640625 160.085938 C 513.25 160.492188 513.820312 160.960938 514.339844 161.480469 C 514.859375 162 515.324219 162.566406 515.734375 163.179688 C 516.144531 163.792969 516.488281 164.4375 516.769531 165.121094 C 517.054688 165.800781 517.265625 166.5 517.410156 167.222656 C 517.554688 167.945312 517.625 168.675781 517.625 169.414062 L 517.625 348.007812 C 517.625 348.742188 517.554688 349.472656 517.410156 350.195312 C 517.265625 350.917969 517.054688 351.617188 516.769531 352.300781 C 516.488281 352.980469 516.144531 353.625 515.734375 354.238281 C 515.324219 354.851562 514.859375 355.417969 514.339844 355.9375 C 513.820312 356.460938 513.25 356.925781 512.640625 357.332031 C 512.027344 357.742188 511.378906 358.089844 510.699219 358.371094 C 510.019531 358.652344 509.316406 358.863281 508.59375 359.007812 C 507.871094 359.152344 507.144531 359.222656 506.40625 359.222656 Z M 506.40625 359.222656 " fill-opacity="1" fill-rule="nonzero"/><path fill="#ffffff" d="M 506.449219 180.636719 C 505.863281 180.636719 505.28125 180.589844 504.699219 180.496094 C 504.121094 180.40625 503.550781 180.269531 502.996094 180.089844 C 502.4375 179.90625 501.894531 179.683594 501.371094 179.417969 C 500.847656 179.152344 500.351562 178.847656 499.875 178.503906 C 499.398438 178.160156 498.953125 177.78125 498.539062 177.367188 C 498.121094 176.953125 497.738281 176.507812 497.394531 176.035156 C 497.046875 175.5625 496.738281 175.0625 496.472656 174.542969 C 496.203125 174.019531 495.976562 173.480469 495.792969 172.921875 L 487.519531 147.832031 C 487.253906 147.011719 486.921875 146.214844 486.527344 145.449219 C 486.132812 144.679688 485.683594 143.949219 485.175781 143.25 C 484.667969 142.554688 484.105469 141.898438 483.496094 141.289062 C 482.882812 140.683594 482.226562 140.125 481.527344 139.617188 C 480.828125 139.113281 480.09375 138.664062 479.324219 138.273438 C 478.554688 137.882812 477.761719 137.554688 476.9375 137.289062 C 476.117188 137.023438 475.28125 136.824219 474.429688 136.691406 C 473.574219 136.558594 472.71875 136.492188 471.855469 136.492188 L 380.082031 136.492188 C 379.21875 136.492188 378.363281 136.554688 377.507812 136.691406 C 376.65625 136.824219 375.820312 137.023438 375 137.289062 C 374.175781 137.554688 373.382812 137.882812 372.613281 138.269531 C 371.84375 138.660156 371.109375 139.109375 370.410156 139.613281 C 369.710938 140.121094 369.054688 140.675781 368.441406 141.285156 C 367.832031 141.894531 367.269531 142.546875 366.761719 143.242188 C 366.25 143.941406 365.800781 144.671875 365.40625 145.441406 C 365.011719 146.207031 364.679688 147.003906 364.410156 147.820312 L 356.144531 172.921875 C 355.917969 173.625 355.628906 174.304688 355.269531 174.953125 C 354.910156 175.601562 354.488281 176.207031 354.011719 176.773438 C 353.53125 177.339844 353 177.851562 352.417969 178.3125 C 351.835938 178.769531 351.21875 179.171875 350.558594 179.507812 C 349.894531 179.84375 349.210938 180.113281 348.496094 180.3125 C 347.78125 180.515625 347.054688 180.644531 346.316406 180.699219 C 345.578125 180.757812 344.839844 180.742188 344.105469 180.652344 C 343.367188 180.5625 342.648438 180.402344 341.945312 180.171875 C 341.242188 179.9375 340.566406 179.640625 339.921875 179.273438 C 339.277344 178.90625 338.671875 178.480469 338.113281 177.996094 C 337.550781 177.511719 337.046875 176.976562 336.589844 176.390625 C 336.136719 175.804688 335.746094 175.179688 335.414062 174.515625 C 335.082031 173.851562 334.820312 173.164062 334.628906 172.449219 C 334.433594 171.730469 334.3125 171.003906 334.261719 170.265625 C 334.214844 169.523438 334.238281 168.789062 334.332031 168.054688 C 334.429688 167.316406 334.597656 166.597656 334.835938 165.898438 L 343.101562 140.804688 C 343.738281 138.871094 344.519531 136.996094 345.449219 135.183594 C 346.378906 133.371094 347.441406 131.640625 348.644531 129.996094 C 349.84375 128.351562 351.167969 126.8125 352.609375 125.375 C 354.054688 123.9375 355.601562 122.621094 357.25 121.425781 C 358.902344 120.234375 360.632812 119.175781 362.449219 118.253906 C 364.265625 117.332031 366.144531 116.558594 368.082031 115.933594 C 370.019531 115.308594 371.996094 114.835938 374.007812 114.523438 C 376.019531 114.207031 378.046875 114.050781 380.082031 114.054688 L 471.855469 114.054688 C 473.890625 114.050781 475.917969 114.207031 477.929688 114.523438 C 479.941406 114.839844 481.914062 115.308594 483.855469 115.9375 C 485.792969 116.5625 487.667969 117.335938 489.484375 118.257812 C 491.300781 119.179688 493.035156 120.238281 494.6875 121.429688 C 496.335938 122.625 497.882812 123.941406 499.328125 125.375 C 500.769531 126.8125 502.09375 128.355469 503.292969 130 C 504.496094 131.644531 505.5625 133.371094 506.492188 135.183594 C 507.421875 136.996094 508.203125 138.871094 508.839844 140.804688 L 517.109375 165.898438 C 517.246094 166.320312 517.359375 166.746094 517.449219 167.179688 C 517.535156 167.613281 517.597656 168.046875 517.632812 168.488281 C 517.667969 168.929688 517.679688 169.371094 517.660156 169.8125 C 517.644531 170.253906 517.601562 170.691406 517.535156 171.128906 C 517.46875 171.566406 517.375 171.996094 517.253906 172.421875 C 517.136719 172.847656 516.992188 173.265625 516.824219 173.675781 C 516.65625 174.082031 516.464844 174.480469 516.25 174.867188 C 516.035156 175.253906 515.796875 175.625 515.539062 175.984375 C 515.277344 176.339844 515 176.683594 514.699219 177.007812 C 514.402344 177.332031 514.082031 177.640625 513.75 177.925781 C 513.414062 178.214844 513.0625 178.480469 512.695312 178.726562 C 512.328125 178.972656 511.949219 179.199219 511.554688 179.398438 C 511.160156 179.601562 510.757812 179.777344 510.34375 179.933594 C 509.929688 180.085938 509.507812 180.214844 509.078125 180.320312 C 508.648438 180.421875 508.210938 180.5 507.773438 180.554688 C 507.335938 180.605469 506.894531 180.632812 506.453125 180.632812 Z M 506.449219 180.636719 " fill-opacity="1" fill-rule="nonzero"/><path fill="#ffffff" d="M 425.960938 306.589844 C 424.410156 306.589844 422.859375 306.511719 421.3125 306.359375 C 419.769531 306.207031 418.234375 305.980469 416.710938 305.675781 C 415.1875 305.371094 413.679688 304.996094 412.195312 304.542969 C 410.707031 304.09375 409.246094 303.570312 407.8125 302.976562 C 406.378906 302.382812 404.976562 301.71875 403.605469 300.984375 C 402.234375 300.253906 400.90625 299.453125 399.613281 298.589844 C 398.320312 297.726562 397.074219 296.804688 395.875 295.820312 C 394.675781 294.832031 393.523438 293.789062 392.425781 292.691406 C 391.328125 291.59375 390.285156 290.445312 389.300781 289.242188 C 388.316406 288.042969 387.390625 286.796875 386.527344 285.503906 C 385.667969 284.210938 384.867188 282.882812 384.136719 281.511719 C 383.40625 280.140625 382.742188 278.738281 382.148438 277.304688 C 381.550781 275.867188 381.03125 274.40625 380.578125 272.921875 C 380.128906 271.433594 379.75 269.929688 379.449219 268.40625 C 379.144531 266.882812 378.917969 265.347656 378.765625 263.800781 C 378.613281 262.257812 378.539062 260.707031 378.539062 259.152344 C 378.539062 257.601562 378.613281 256.050781 378.765625 254.503906 C 378.917969 252.957031 379.148438 251.425781 379.449219 249.902344 C 379.753906 248.378906 380.132812 246.871094 380.582031 245.386719 C 381.03125 243.898438 381.554688 242.4375 382.152344 241.003906 C 382.746094 239.570312 383.410156 238.164062 384.140625 236.796875 C 384.875 235.425781 385.671875 234.09375 386.535156 232.804688 C 387.398438 231.511719 388.320312 230.265625 389.308594 229.066406 C 390.292969 227.863281 391.335938 226.714844 392.433594 225.617188 C 393.53125 224.519531 394.679688 223.476562 395.882812 222.492188 C 397.082031 221.507812 398.328125 220.582031 399.621094 219.71875 C 400.914062 218.855469 402.242188 218.058594 403.613281 217.328125 C 404.984375 216.59375 406.386719 215.929688 407.820312 215.335938 C 409.253906 214.742188 410.714844 214.21875 412.203125 213.769531 C 413.691406 213.316406 415.195312 212.941406 416.71875 212.636719 C 418.242188 212.335938 419.777344 212.109375 421.324219 211.957031 C 422.867188 211.804688 424.417969 211.726562 425.972656 211.726562 C 427.523438 211.726562 429.074219 211.804688 430.621094 211.957031 C 432.164062 212.109375 433.699219 212.335938 435.222656 212.640625 C 436.746094 212.941406 438.253906 213.320312 439.738281 213.769531 C 441.226562 214.222656 442.6875 214.742188 444.121094 215.339844 C 445.554688 215.933594 446.960938 216.597656 448.328125 217.328125 C 449.699219 218.0625 451.03125 218.859375 452.320312 219.722656 C 453.613281 220.585938 454.859375 221.507812 456.058594 222.496094 C 457.261719 223.480469 458.410156 224.523438 459.507812 225.621094 C 460.605469 226.71875 461.648438 227.867188 462.632812 229.070312 C 463.621094 230.269531 464.542969 231.515625 465.40625 232.808594 C 466.269531 234.097656 467.066406 235.429688 467.800781 236.800781 C 468.53125 238.167969 469.195312 239.574219 469.789062 241.007812 C 470.382812 242.441406 470.90625 243.902344 471.355469 245.390625 C 471.808594 246.875 472.183594 248.382812 472.488281 249.90625 C 472.792969 251.429688 473.019531 252.964844 473.171875 254.507812 C 473.324219 256.054688 473.398438 257.605469 473.398438 259.15625 C 473.398438 260.710938 473.320312 262.261719 473.167969 263.804688 C 473.011719 265.351562 472.785156 266.886719 472.480469 268.410156 C 472.175781 269.929688 471.796875 271.4375 471.34375 272.921875 C 470.894531 274.40625 470.371094 275.867188 469.773438 277.300781 C 469.179688 278.738281 468.515625 280.140625 467.78125 281.507812 C 467.050781 282.878906 466.253906 284.207031 465.390625 285.5 C 464.527344 286.789062 463.601562 288.035156 462.617188 289.234375 C 461.628906 290.4375 460.589844 291.585938 459.488281 292.683594 C 458.390625 293.78125 457.242188 294.824219 456.042969 295.808594 C 454.839844 296.792969 453.59375 297.71875 452.304688 298.582031 C 451.011719 299.445312 449.683594 300.242188 448.3125 300.976562 C 446.945312 301.707031 445.542969 302.371094 444.105469 302.964844 C 442.671875 303.5625 441.210938 304.085938 439.726562 304.535156 C 438.242188 304.988281 436.734375 305.367188 435.214844 305.667969 C 433.691406 305.972656 432.15625 306.203125 430.609375 306.355469 C 429.066406 306.507812 427.515625 306.585938 425.960938 306.589844 Z M 425.960938 234.164062 C 425.144531 234.164062 424.328125 234.203125 423.511719 234.285156 C 422.699219 234.367188 421.890625 234.484375 421.085938 234.644531 C 420.285156 234.804688 419.492188 235.003906 418.707031 235.242188 C 417.925781 235.480469 417.15625 235.753906 416.398438 236.070312 C 415.640625 236.382812 414.902344 236.730469 414.179688 237.117188 C 413.460938 237.503906 412.757812 237.925781 412.078125 238.378906 C 411.398438 238.835938 410.742188 239.320312 410.109375 239.839844 C 409.476562 240.359375 408.871094 240.910156 408.292969 241.488281 C 407.710938 242.066406 407.164062 242.671875 406.644531 243.304688 C 406.125 243.9375 405.640625 244.597656 405.183594 245.277344 C 404.730469 245.957031 404.308594 246.660156 403.921875 247.378906 C 403.539062 248.101562 403.1875 248.839844 402.875 249.597656 C 402.5625 250.355469 402.289062 251.125 402.050781 251.90625 C 401.8125 252.691406 401.613281 253.484375 401.453125 254.285156 C 401.292969 255.089844 401.175781 255.898438 401.09375 256.710938 C 401.015625 257.527344 400.976562 258.34375 400.976562 259.164062 C 400.976562 259.980469 401.015625 260.796875 401.09375 261.613281 C 401.175781 262.425781 401.296875 263.234375 401.457031 264.039062 C 401.617188 264.839844 401.816406 265.632812 402.050781 266.417969 C 402.289062 267.199219 402.566406 267.96875 402.878906 268.726562 C 403.191406 269.484375 403.542969 270.222656 403.929688 270.945312 C 404.3125 271.664062 404.734375 272.367188 405.1875 273.046875 C 405.644531 273.726562 406.132812 274.382812 406.652344 275.015625 C 407.167969 275.648438 407.71875 276.253906 408.296875 276.832031 C 408.875 277.414062 409.484375 277.960938 410.117188 278.480469 C 410.75 279 411.40625 279.488281 412.085938 279.941406 C 412.765625 280.394531 413.46875 280.816406 414.191406 281.203125 C 414.910156 281.589844 415.652344 281.9375 416.40625 282.25 C 417.164062 282.5625 417.933594 282.839844 418.714844 283.078125 C 419.5 283.3125 420.292969 283.511719 421.09375 283.671875 C 421.898438 283.832031 422.707031 283.953125 423.523438 284.03125 C 424.335938 284.113281 425.152344 284.152344 425.972656 284.152344 C 426.789062 284.152344 427.605469 284.113281 428.421875 284.03125 C 429.234375 283.953125 430.042969 283.832031 430.847656 283.671875 C 431.648438 283.511719 432.441406 283.3125 433.226562 283.074219 C 434.007812 282.835938 434.777344 282.5625 435.535156 282.25 C 436.292969 281.9375 437.03125 281.585938 437.753906 281.199219 C 438.472656 280.8125 439.175781 280.394531 439.855469 279.9375 C 440.535156 279.484375 441.195312 278.996094 441.828125 278.476562 C 442.457031 277.957031 443.066406 277.410156 443.644531 276.832031 C 444.222656 276.25 444.769531 275.644531 445.289062 275.011719 C 445.808594 274.378906 446.296875 273.722656 446.75 273.042969 C 447.207031 272.363281 447.625 271.660156 448.011719 270.941406 C 448.398438 270.21875 448.746094 269.476562 449.0625 268.722656 C 449.375 267.964844 449.648438 267.195312 449.886719 266.414062 C 450.125 265.628906 450.324219 264.835938 450.484375 264.035156 C 450.644531 263.230469 450.761719 262.421875 450.84375 261.609375 C 450.921875 260.792969 450.964844 259.976562 450.964844 259.15625 C 450.960938 258.339844 450.921875 257.523438 450.839844 256.707031 C 450.757812 255.894531 450.636719 255.085938 450.476562 254.28125 C 450.316406 253.480469 450.117188 252.6875 449.878906 251.90625 C 449.640625 251.121094 449.367188 250.351562 449.050781 249.597656 C 448.738281 248.839844 448.386719 248.101562 448.003906 247.378906 C 447.617188 246.65625 447.195312 245.957031 446.742188 245.277344 C 446.285156 244.597656 445.796875 243.941406 445.277344 243.308594 C 444.757812 242.675781 444.210938 242.070312 443.632812 241.492188 C 443.054688 240.910156 442.445312 240.363281 441.8125 239.84375 C 441.183594 239.324219 440.523438 238.835938 439.84375 238.382812 C 439.164062 237.929688 438.464844 237.507812 437.742188 237.121094 C 437.019531 236.734375 436.28125 236.386719 435.523438 236.070312 C 434.769531 235.757812 434 235.484375 433.214844 235.246094 C 432.433594 235.007812 431.640625 234.808594 430.835938 234.648438 C 430.035156 234.488281 429.226562 234.367188 428.410156 234.285156 C 427.597656 234.207031 426.78125 234.164062 425.960938 234.164062 Z M 425.960938 234.164062 " fill-opacity="1" fill-rule="nonzero"/><path fill="#ffffff" d="M 404.996094 672.757812 C 403.273438 672.757812 401.640625 672.382812 400.09375 671.628906 C 388.085938 665.304688 376.800781 657.878906 366.242188 649.355469 C 355.683594 640.828125 346.050781 631.363281 337.339844 620.957031 C 335.328125 618.710938 333.445312 616.363281 331.691406 613.910156 C 329.933594 611.460938 328.320312 608.921875 326.84375 606.292969 C 325.367188 603.664062 324.035156 600.964844 322.855469 598.191406 C 321.675781 595.414062 320.648438 592.585938 319.777344 589.699219 C 318.90625 586.8125 318.195312 583.890625 317.640625 580.925781 C 317.089844 577.960938 316.703125 574.976562 316.476562 571.96875 C 316.253906 568.964844 316.195312 565.953125 316.296875 562.941406 C 316.402344 559.929688 316.671875 556.929688 317.105469 553.949219 C 317.511719 552.074219 318.027344 550.234375 318.652344 548.421875 C 319.277344 546.609375 320.003906 544.839844 320.832031 543.113281 C 321.664062 541.386719 322.59375 539.714844 323.621094 538.097656 C 324.648438 536.480469 325.765625 534.929688 326.972656 533.441406 C 328.179688 531.957031 329.472656 530.546875 330.847656 529.210938 C 332.21875 527.875 333.667969 526.625 335.1875 525.457031 C 336.707031 524.292969 338.292969 523.21875 339.9375 522.238281 C 341.582031 521.257812 343.28125 520.378906 345.03125 519.597656 C 346.226562 518.988281 347.445312 518.429688 348.683594 517.914062 C 349.921875 517.398438 351.179688 516.929688 352.453125 516.511719 C 353.730469 516.089844 355.015625 515.71875 356.320312 515.394531 C 357.621094 515.074219 358.933594 514.800781 360.257812 514.578125 C 361.582031 514.355469 362.910156 514.179688 364.246094 514.058594 C 365.582031 513.9375 366.921875 513.863281 368.265625 513.84375 C 369.605469 513.820312 370.945312 513.851562 372.285156 513.929688 C 373.625 514.011719 374.960938 514.140625 376.289062 514.324219 C 377.617188 514.503906 378.941406 514.738281 380.253906 515.019531 C 381.5625 515.300781 382.863281 515.628906 384.152344 516.007812 C 385.4375 516.390625 386.707031 516.816406 387.964844 517.292969 C 389.21875 517.769531 390.453125 518.292969 391.667969 518.859375 C 392.882812 519.429688 394.074219 520.042969 395.242188 520.703125 C 396.410156 521.363281 397.554688 522.066406 398.667969 522.8125 C 399.785156 523.558594 400.871094 524.347656 401.925781 525.175781 C 402.980469 526.003906 404.003906 526.871094 404.996094 527.773438 C 405.984375 526.871094 407.007812 526.003906 408.0625 525.175781 C 409.117188 524.347656 410.203125 523.558594 411.320312 522.816406 C 412.433594 522.070312 413.578125 521.367188 414.746094 520.707031 C 415.914062 520.046875 417.105469 519.433594 418.320312 518.863281 C 419.535156 518.292969 420.769531 517.773438 422.023438 517.296875 C 423.28125 516.820312 424.550781 516.394531 425.835938 516.011719 C 427.125 515.632812 428.421875 515.304688 429.734375 515.023438 C 431.046875 514.742188 432.367188 514.507812 433.695312 514.328125 C 435.027344 514.148438 436.359375 514.015625 437.699219 513.933594 C 439.039062 513.855469 440.378906 513.824219 441.722656 513.847656 C 443.0625 513.867188 444.402344 513.9375 445.738281 514.0625 C 447.074219 514.183594 448.402344 514.355469 449.726562 514.578125 C 451.050781 514.804688 452.363281 515.074219 453.664062 515.398438 C 454.964844 515.71875 456.253906 516.089844 457.53125 516.511719 C 458.804688 516.929688 460.058594 517.398438 461.300781 517.914062 C 462.539062 518.429688 463.753906 518.988281 464.953125 519.597656 C 466.703125 520.378906 468.398438 521.257812 470.046875 522.238281 C 471.691406 523.21875 473.277344 524.292969 474.796875 525.460938 C 476.316406 526.625 477.765625 527.875 479.140625 529.210938 C 480.515625 530.546875 481.804688 531.957031 483.015625 533.445312 C 484.222656 534.933594 485.339844 536.484375 486.367188 538.101562 C 487.394531 539.71875 488.324219 541.390625 489.15625 543.117188 C 489.988281 544.84375 490.714844 546.613281 491.339844 548.425781 C 491.960938 550.238281 492.476562 552.082031 492.886719 553.953125 C 493.320312 556.9375 493.585938 559.933594 493.691406 562.945312 C 493.796875 565.960938 493.734375 568.96875 493.511719 571.976562 C 493.285156 574.980469 492.898438 577.96875 492.347656 580.929688 C 491.792969 583.894531 491.082031 586.820312 490.210938 589.703125 C 489.339844 592.589844 488.3125 595.421875 487.128906 598.195312 C 485.949219 600.96875 484.617188 603.667969 483.140625 606.296875 C 481.664062 608.921875 480.046875 611.460938 478.292969 613.914062 C 476.535156 616.363281 474.652344 618.710938 472.640625 620.957031 C 463.929688 631.363281 454.296875 640.828125 443.738281 649.355469 C 433.183594 657.882812 421.902344 665.304688 409.894531 671.628906 C 408.347656 672.378906 406.714844 672.757812 404.996094 672.757812 Z M 369.300781 536.261719 C 364.1875 536.324219 359.347656 537.503906 354.78125 539.808594 C 352.800781 540.636719 350.949219 541.6875 349.226562 542.964844 C 347.5 544.238281 345.953125 545.699219 344.578125 547.351562 C 343.207031 549 342.050781 550.789062 341.113281 552.714844 C 340.171875 554.644531 339.476562 556.65625 339.019531 558.753906 C 338.796875 560.90625 338.683594 563.066406 338.683594 565.230469 C 338.6875 567.394531 338.800781 569.554688 339.027344 571.707031 C 339.257812 573.859375 339.597656 575.996094 340.046875 578.113281 C 340.5 580.230469 341.0625 582.320312 341.734375 584.378906 C 342.40625 586.4375 343.183594 588.453125 344.066406 590.429688 C 344.949219 592.40625 345.933594 594.332031 347.015625 596.207031 C 348.101562 598.078125 349.285156 599.890625 350.558594 601.640625 C 351.835938 603.390625 353.199219 605.070312 354.648438 606.675781 C 361.761719 615.089844 369.546875 622.835938 378 629.90625 C 386.453125 636.976562 395.453125 643.269531 404.996094 648.78125 C 414.535156 643.265625 423.53125 636.976562 431.984375 629.90625 C 440.4375 622.835938 448.21875 615.089844 455.332031 606.675781 C 456.785156 605.070312 458.148438 603.390625 459.425781 601.640625 C 460.703125 599.894531 461.882812 598.082031 462.96875 596.207031 C 464.054688 594.335938 465.039062 592.410156 465.921875 590.433594 C 466.804688 588.457031 467.582031 586.4375 468.253906 584.382812 C 468.925781 582.324219 469.488281 580.234375 469.941406 578.117188 C 470.390625 576 470.730469 573.863281 470.960938 571.710938 C 471.1875 569.558594 471.304688 567.398438 471.304688 565.234375 C 471.304688 563.070312 471.191406 560.910156 470.96875 558.757812 C 470.515625 556.660156 469.816406 554.644531 468.878906 552.71875 C 467.9375 550.789062 466.78125 549 465.410156 547.351562 C 464.035156 545.699219 462.488281 544.238281 460.761719 542.964844 C 459.035156 541.6875 457.183594 540.636719 455.203125 539.808594 C 454.335938 539.394531 453.449219 539.019531 452.550781 538.679688 C 451.648438 538.34375 450.734375 538.042969 449.804688 537.789062 C 448.878906 537.53125 447.941406 537.3125 446.996094 537.140625 C 446.050781 536.964844 445.097656 536.832031 444.140625 536.742188 C 443.179688 536.652344 442.222656 536.601562 441.257812 536.597656 C 440.296875 536.589844 439.335938 536.625 438.375 536.707031 C 437.417969 536.785156 436.464844 536.90625 435.515625 537.066406 C 434.566406 537.230469 433.628906 537.433594 432.695312 537.679688 C 431.765625 537.925781 430.847656 538.210938 429.941406 538.535156 C 429.039062 538.863281 428.148438 539.230469 427.273438 539.632812 C 426.402344 540.039062 425.546875 540.480469 424.714844 540.960938 C 423.878906 541.441406 423.070312 541.957031 422.28125 542.507812 C 421.492188 543.058594 420.730469 543.644531 419.992188 544.261719 C 419.253906 544.882812 418.546875 545.53125 417.867188 546.210938 C 417.1875 546.894531 416.539062 547.601562 415.921875 548.339844 C 415.304688 549.078125 414.71875 549.84375 414.167969 550.632812 C 413.898438 550.980469 413.609375 551.3125 413.300781 551.625 C 412.992188 551.941406 412.664062 552.238281 412.324219 552.515625 C 411.980469 552.792969 411.621094 553.050781 411.25 553.285156 C 410.878906 553.523438 410.496094 553.738281 410.097656 553.933594 C 409.703125 554.125 409.296875 554.296875 408.882812 554.441406 C 408.464844 554.589844 408.042969 554.714844 407.613281 554.8125 C 407.183594 554.910156 406.75 554.984375 406.3125 555.035156 C 405.875 555.085938 405.433594 555.109375 404.996094 555.109375 C 404.554688 555.109375 404.113281 555.085938 403.675781 555.035156 C 403.238281 554.984375 402.804688 554.910156 402.375 554.8125 C 401.945312 554.714844 401.523438 554.589844 401.105469 554.441406 C 400.691406 554.296875 400.285156 554.125 399.890625 553.933594 C 399.492188 553.738281 399.109375 553.523438 398.738281 553.285156 C 398.367188 553.050781 398.007812 552.792969 397.667969 552.515625 C 397.324219 552.238281 397 551.941406 396.6875 551.625 C 396.378906 551.3125 396.089844 550.980469 395.820312 550.632812 C 394.28125 548.523438 392.53125 546.613281 390.570312 544.894531 C 388.605469 543.175781 386.476562 541.695312 384.183594 540.453125 C 381.890625 539.207031 379.488281 538.234375 376.976562 537.527344 C 374.464844 536.820312 371.90625 536.398438 369.300781 536.261719 Z M 369.300781 536.261719 " fill-opacity="1" fill-rule="nonzero"/><path fill="#ffffff" d="M 230.566406 359.222656 C 229.527344 359.226562 228.507812 359.085938 227.507812 358.800781 C 226.507812 358.519531 225.566406 358.109375 224.683594 357.5625 C 223.796875 357.019531 223.003906 356.367188 222.300781 355.601562 C 221.59375 354.839844 221.007812 353.996094 220.539062 353.066406 C 217.542969 347.15625 215.277344 340.976562 213.746094 334.527344 C 212.214844 328.078125 211.460938 321.539062 211.480469 314.914062 C 211.480469 313.503906 211.519531 312.09375 211.589844 310.6875 C 211.660156 309.277344 211.765625 307.875 211.90625 306.472656 C 212.042969 305.066406 212.21875 303.667969 212.425781 302.277344 C 212.632812 300.882812 212.875 299.492188 213.152344 298.109375 C 213.429688 296.730469 213.738281 295.355469 214.082031 293.988281 C 214.425781 292.621094 214.800781 291.261719 215.210938 289.914062 C 215.621094 288.566406 216.066406 287.226562 216.542969 285.902344 C 217.015625 284.574219 217.523438 283.257812 218.066406 281.957031 C 218.605469 280.65625 219.175781 279.367188 219.78125 278.09375 C 220.382812 276.820312 221.019531 275.5625 221.683594 274.320312 C 222.347656 273.074219 223.042969 271.851562 223.769531 270.640625 C 224.492188 269.433594 225.246094 268.242188 226.03125 267.070312 C 226.816406 265.898438 227.625 264.746094 228.464844 263.613281 C 229.304688 262.484375 230.171875 261.371094 231.066406 260.28125 C 231.960938 259.191406 232.882812 258.125 233.828125 257.082031 C 234.777344 256.039062 235.746094 255.015625 236.746094 254.019531 C 237.742188 253.023438 238.761719 252.050781 239.804688 251.105469 C 240.851562 250.160156 241.917969 249.238281 243.007812 248.34375 C 244.097656 247.449219 245.207031 246.582031 246.339844 245.742188 C 247.46875 244.902344 248.621094 244.089844 249.792969 243.308594 C 250.964844 242.523438 252.15625 241.769531 253.363281 241.042969 C 254.574219 240.320312 255.800781 239.625 257.042969 238.960938 C 258.285156 238.292969 259.542969 237.660156 260.816406 237.058594 C 262.089844 236.453125 263.378906 235.882812 264.679688 235.339844 C 265.984375 234.800781 267.296875 234.292969 268.625 233.816406 C 269.953125 233.34375 271.289062 232.898438 272.636719 232.488281 C 273.988281 232.078125 275.34375 231.703125 276.710938 231.359375 C 278.078125 231.015625 279.453125 230.703125 280.835938 230.429688 C 282.21875 230.152344 283.605469 229.910156 285 229.703125 C 286.394531 229.492188 287.792969 229.320312 289.195312 229.179688 C 290.597656 229.039062 292.003906 228.9375 293.410156 228.863281 C 294.816406 228.792969 296.226562 228.757812 297.636719 228.757812 C 302.636719 228.734375 307.597656 229.152344 312.527344 230.007812 C 317.453125 230.863281 322.265625 232.144531 326.964844 233.851562 C 331.664062 235.554688 336.179688 237.660156 340.507812 240.164062 C 344.832031 242.667969 348.910156 245.53125 352.730469 248.757812 C 353.316406 249.222656 353.851562 249.742188 354.332031 250.3125 C 354.816406 250.886719 355.234375 251.5 355.59375 252.15625 C 355.953125 252.8125 356.246094 253.5 356.464844 254.214844 C 356.6875 254.929688 356.835938 255.65625 356.914062 256.402344 C 356.988281 257.148438 356.992188 257.890625 356.917969 258.636719 C 356.84375 259.382812 356.699219 260.109375 356.480469 260.828125 C 356.261719 261.542969 355.972656 262.230469 355.617188 262.886719 C 355.257812 263.546875 354.839844 264.160156 354.359375 264.734375 C 353.882812 265.308594 353.347656 265.832031 352.765625 266.296875 C 352.179688 266.765625 351.554688 267.171875 350.890625 267.515625 C 350.226562 267.855469 349.53125 268.128906 348.8125 268.335938 C 348.09375 268.539062 347.359375 268.667969 346.613281 268.726562 C 345.867188 268.785156 345.121094 268.765625 344.378906 268.675781 C 343.636719 268.582031 342.910156 268.417969 342.199219 268.183594 C 341.492188 267.945312 340.8125 267.640625 340.164062 267.265625 C 339.511719 266.894531 338.90625 266.460938 338.347656 265.964844 C 335.519531 263.585938 332.511719 261.46875 329.3125 259.621094 C 326.113281 257.773438 322.777344 256.21875 319.304688 254.957031 C 315.832031 253.695312 312.277344 252.75 308.636719 252.117188 C 304.996094 251.484375 301.332031 251.179688 297.636719 251.191406 C 296.59375 251.195312 295.550781 251.222656 294.511719 251.273438 C 293.46875 251.324219 292.429688 251.402344 291.394531 251.507812 C 290.355469 251.609375 289.320312 251.738281 288.289062 251.894531 C 287.257812 252.046875 286.234375 252.226562 285.210938 252.429688 C 284.1875 252.632812 283.171875 252.863281 282.160156 253.117188 C 281.148438 253.371094 280.144531 253.652344 279.148438 253.953125 C 278.152344 254.257812 277.160156 254.585938 276.179688 254.9375 C 275.199219 255.289062 274.226562 255.664062 273.265625 256.0625 C 272.300781 256.464844 271.347656 256.886719 270.40625 257.332031 C 269.464844 257.777344 268.535156 258.246094 267.613281 258.738281 C 266.695312 259.230469 265.789062 259.746094 264.894531 260.28125 C 264 260.816406 263.121094 261.375 262.253906 261.957031 C 261.386719 262.535156 260.535156 263.136719 259.699219 263.757812 C 258.859375 264.378906 258.039062 265.019531 257.234375 265.679688 C 256.429688 266.339844 255.640625 267.023438 254.867188 267.722656 C 254.09375 268.421875 253.339844 269.140625 252.601562 269.878906 C 251.867188 270.617188 251.148438 271.371094 250.445312 272.144531 C 249.746094 272.914062 249.066406 273.703125 248.402344 274.511719 C 247.742188 275.316406 247.101562 276.136719 246.480469 276.972656 C 245.859375 277.8125 245.257812 278.664062 244.679688 279.53125 C 244.101562 280.398438 243.542969 281.277344 243.003906 282.171875 C 242.46875 283.066406 241.957031 283.972656 241.464844 284.890625 C 240.972656 285.808594 240.503906 286.742188 240.054688 287.683594 C 239.609375 288.625 239.1875 289.578125 238.789062 290.539062 C 238.386719 291.503906 238.011719 292.476562 237.660156 293.457031 C 237.308594 294.4375 236.980469 295.425781 236.679688 296.425781 C 236.375 297.421875 236.097656 298.425781 235.84375 299.4375 C 235.585938 300.449219 235.359375 301.464844 235.152344 302.488281 C 234.949219 303.507812 234.769531 304.535156 234.617188 305.566406 C 234.460938 306.597656 234.335938 307.632812 234.230469 308.667969 C 234.128906 309.707031 234.050781 310.746094 233.996094 311.785156 C 233.945312 312.828125 233.917969 313.871094 233.917969 314.914062 C 233.898438 319.78125 234.453125 324.585938 235.578125 329.324219 C 236.699219 334.058594 238.363281 338.601562 240.566406 342.941406 C 240.78125 343.367188 240.96875 343.804688 241.128906 344.253906 C 241.289062 344.703125 241.417969 345.164062 241.519531 345.628906 C 241.621094 346.09375 241.691406 346.566406 241.730469 347.039062 C 241.773438 347.515625 241.785156 347.992188 241.765625 348.46875 C 241.742188 348.945312 241.695312 349.417969 241.613281 349.886719 C 241.535156 350.359375 241.425781 350.820312 241.285156 351.277344 C 241.144531 351.734375 240.976562 352.179688 240.78125 352.613281 C 240.585938 353.046875 240.363281 353.46875 240.113281 353.875 C 239.863281 354.28125 239.589844 354.671875 239.289062 355.042969 C 238.992188 355.414062 238.667969 355.765625 238.324219 356.09375 C 237.980469 356.425781 237.617188 356.730469 237.234375 357.015625 C 236.851562 357.300781 236.453125 357.558594 236.035156 357.792969 C 235.617188 358.023438 235.191406 358.230469 234.746094 358.40625 C 234.304688 358.585938 233.851562 358.734375 233.390625 358.855469 C 232.929688 358.976562 232.464844 359.066406 231.988281 359.128906 C 231.515625 359.191406 231.042969 359.21875 230.566406 359.222656 Z M 230.566406 359.222656 " fill-opacity="1" fill-rule="nonzero"/><path fill="#ffffff" d="M 267.277344 257.65625 C 266.167969 257.65625 265.085938 257.496094 264.027344 257.175781 C 262.96875 256.855469 261.976562 256.390625 261.058594 255.777344 C 260.136719 255.164062 259.324219 254.429688 258.621094 253.578125 C 257.914062 252.722656 257.351562 251.789062 256.921875 250.765625 C 256.3125 249.25 255.578125 247.789062 254.726562 246.390625 C 253.875 244.992188 252.914062 243.671875 251.84375 242.433594 C 250.777344 241.191406 249.613281 240.046875 248.359375 238.996094 C 247.101562 237.945312 245.769531 237.003906 244.359375 236.171875 C 242.945312 235.34375 241.476562 234.632812 239.949219 234.042969 C 238.421875 233.449219 236.859375 232.988281 235.253906 232.65625 C 233.652344 232.324219 232.03125 232.121094 230.394531 232.054688 C 228.757812 231.984375 227.128906 232.050781 225.503906 232.253906 C 224.773438 232.359375 224.042969 232.394531 223.308594 232.359375 C 222.570312 232.324219 221.847656 232.214844 221.132812 232.035156 C 220.417969 231.855469 219.726562 231.609375 219.0625 231.292969 C 218.398438 230.976562 217.769531 230.601562 217.175781 230.160156 C 216.585938 229.722656 216.042969 229.230469 215.546875 228.683594 C 215.054688 228.140625 214.617188 227.550781 214.238281 226.917969 C 213.859375 226.285156 213.546875 225.625 213.300781 224.929688 C 213.050781 224.238281 212.875 223.527344 212.765625 222.796875 C 212.65625 222.070312 212.621094 221.335938 212.65625 220.601562 C 212.695312 219.863281 212.800781 219.140625 212.980469 218.425781 C 213.160156 217.710938 213.40625 217.019531 213.722656 216.355469 C 214.039062 215.691406 214.414062 215.0625 214.851562 214.46875 C 215.292969 213.878906 215.785156 213.335938 216.328125 212.839844 C 216.875 212.347656 217.464844 211.910156 218.097656 211.53125 C 218.726562 211.152344 219.390625 210.839844 220.082031 210.589844 C 220.777344 210.34375 221.488281 210.164062 222.214844 210.054688 C 223.640625 209.867188 225.070312 209.738281 226.503906 209.664062 C 227.9375 209.59375 229.375 209.582031 230.808594 209.628906 C 232.246094 209.671875 233.675781 209.777344 235.105469 209.941406 C 236.53125 210.105469 237.949219 210.328125 239.359375 210.609375 C 240.765625 210.890625 242.160156 211.226562 243.542969 211.621094 C 244.921875 212.019531 246.285156 212.46875 247.628906 212.976562 C 248.972656 213.484375 250.292969 214.042969 251.59375 214.660156 C 252.890625 215.273438 254.160156 215.941406 255.402344 216.664062 C 256.648438 217.382812 257.859375 218.152344 259.039062 218.972656 C 260.21875 219.792969 261.363281 220.65625 262.46875 221.570312 C 263.578125 222.484375 264.648438 223.441406 265.679688 224.441406 C 266.707031 225.445312 267.695312 226.488281 268.640625 227.570312 C 269.585938 228.652344 270.480469 229.769531 271.335938 230.925781 C 272.1875 232.082031 272.992188 233.273438 273.746094 234.496094 C 274.5 235.714844 275.203125 236.96875 275.855469 238.246094 C 276.507812 239.527344 277.105469 240.832031 277.648438 242.160156 C 277.929688 242.84375 278.140625 243.542969 278.28125 244.265625 C 278.425781 244.988281 278.496094 245.71875 278.492188 246.457031 C 278.492188 247.191406 278.417969 247.921875 278.273438 248.644531 C 278.125 249.367188 277.910156 250.066406 277.628906 250.746094 C 277.34375 251.425781 276.996094 252.070312 276.585938 252.683594 C 276.175781 253.292969 275.710938 253.859375 275.1875 254.378906 C 274.664062 254.898438 274.097656 255.363281 273.484375 255.769531 C 272.871094 256.179688 272.222656 256.523438 271.542969 256.800781 C 270.175781 257.371094 268.753906 257.65625 267.277344 257.65625 Z M 267.277344 257.65625 " fill-opacity="1" fill-rule="nonzero"/><path fill="#ffffff" d="M 169.414062 359.265625 C 167.945312 359.269531 166.535156 358.992188 165.179688 358.433594 C 162.007812 357.140625 87.589844 326.15625 92.621094 275.25 C 92.84375 272.0625 93.394531 268.929688 94.277344 265.855469 C 95.15625 262.78125 96.347656 259.832031 97.851562 257.007812 C 99.351562 254.1875 101.132812 251.550781 103.1875 249.101562 C 105.246094 246.652344 107.535156 244.445312 110.058594 242.480469 C 114.578125 239.265625 119.441406 236.707031 124.644531 234.796875 C 129.851562 232.886719 135.21875 231.695312 140.742188 231.226562 C 117.410156 200.375 82.40625 144.359375 111.359375 117.109375 C 139.394531 90.746094 190.179688 124.019531 219.605469 147.800781 C 219.769531 141.769531 220.792969 135.890625 222.671875 130.160156 C 224.554688 124.429688 227.214844 119.089844 230.652344 114.136719 C 232.308594 112.007812 234.175781 110.085938 236.25 108.363281 C 238.324219 106.644531 240.558594 105.164062 242.957031 103.929688 C 245.351562 102.691406 247.851562 101.726562 250.457031 101.035156 C 253.058594 100.339844 255.707031 99.933594 258.402344 99.816406 C 302.316406 96.605469 347.316406 199.800781 355.898438 220.464844 C 356.167969 221.144531 356.371094 221.839844 356.503906 222.558594 C 356.636719 223.277344 356.703125 224 356.695312 224.730469 C 356.6875 225.457031 356.609375 226.179688 356.460938 226.894531 C 356.3125 227.609375 356.097656 228.304688 355.816406 228.976562 C 355.53125 229.648438 355.1875 230.285156 354.777344 230.890625 C 354.371094 231.496094 353.90625 232.058594 353.390625 232.570312 C 352.875 233.085938 352.3125 233.546875 351.703125 233.949219 C 351.097656 234.355469 350.457031 234.699219 349.78125 234.980469 C 349.109375 235.257812 348.414062 235.472656 347.699219 235.617188 C 346.984375 235.761719 346.261719 235.835938 345.53125 235.839844 C 344.800781 235.839844 344.078125 235.773438 343.363281 235.636719 C 342.644531 235.5 341.949219 235.292969 341.273438 235.019531 C 340.597656 234.746094 339.953125 234.410156 339.34375 234.011719 C 338.730469 233.613281 338.164062 233.160156 337.640625 232.648438 C 337.121094 232.140625 336.652344 231.585938 336.238281 230.984375 C 335.824219 230.382812 335.472656 229.746094 335.183594 229.078125 C 313.398438 176.707031 278.585938 121.320312 259.910156 122.199219 C 258.792969 122.210938 257.695312 122.34375 256.609375 122.605469 C 255.527344 122.863281 254.484375 123.242188 253.484375 123.734375 C 252.484375 124.230469 251.554688 124.828125 250.6875 125.53125 C 249.824219 126.234375 249.046875 127.027344 248.363281 127.90625 C 239.625 139.132812 241.707031 163.789062 243.125 171.542969 C 243.230469 172.121094 243.289062 172.703125 243.304688 173.292969 C 243.320312 173.878906 243.285156 174.464844 243.207031 175.046875 C 243.132812 175.628906 243.007812 176.203125 242.839844 176.765625 C 242.671875 177.328125 242.460938 177.875 242.207031 178.40625 C 241.953125 178.933594 241.660156 179.441406 241.328125 179.925781 C 240.992188 180.410156 240.625 180.863281 240.21875 181.289062 C 239.816406 181.71875 239.378906 182.109375 238.914062 182.464844 C 238.445312 182.824219 237.953125 183.140625 237.4375 183.421875 C 236.921875 183.703125 236.386719 183.941406 235.832031 184.136719 C 235.277344 184.332031 234.710938 184.484375 234.136719 184.589844 C 233.558594 184.699219 232.972656 184.761719 232.386719 184.777344 C 231.800781 184.792969 231.214844 184.761719 230.632812 184.683594 C 230.050781 184.609375 229.476562 184.488281 228.914062 184.320312 C 228.347656 184.152344 227.800781 183.945312 227.269531 183.691406 C 226.742188 183.441406 226.234375 183.148438 225.746094 182.816406 C 225.261719 182.484375 224.808594 182.113281 224.378906 181.710938 C 194.417969 153.386719 142.648438 118.480469 126.742188 133.441406 C 110.910156 148.339844 144.917969 203.054688 172.890625 235.339844 C 173.644531 236.214844 174.253906 237.183594 174.710938 238.242188 C 175.167969 239.304688 175.453125 240.40625 175.570312 241.558594 C 175.6875 242.707031 175.625 243.847656 175.390625 244.976562 C 175.15625 246.105469 174.753906 247.175781 174.1875 248.183594 C 173.621094 249.1875 172.917969 250.085938 172.074219 250.875 C 171.230469 251.664062 170.289062 252.308594 169.246094 252.804688 C 168.203125 253.304688 167.109375 253.632812 165.964844 253.792969 C 164.824219 253.953125 163.679688 253.9375 162.542969 253.746094 C 159.230469 253.160156 155.894531 252.859375 152.53125 252.847656 C 149.171875 252.835938 145.832031 253.109375 142.515625 253.671875 C 139.203125 254.234375 135.957031 255.074219 132.789062 256.195312 C 129.617188 257.3125 126.566406 258.695312 123.632812 260.339844 C 122.339844 261.375 121.167969 262.53125 120.125 263.8125 C 119.078125 265.097656 118.179688 266.476562 117.429688 267.953125 C 116.679688 269.429688 116.09375 270.96875 115.675781 272.570312 C 115.257812 274.171875 115.011719 275.800781 114.941406 277.453125 C 112.125 305.925781 156.375 330.570312 173.660156 337.667969 C 174.257812 337.914062 174.828125 338.207031 175.375 338.550781 C 175.921875 338.894531 176.433594 339.28125 176.914062 339.710938 C 177.394531 340.144531 177.832031 340.613281 178.230469 341.121094 C 178.628906 341.625 178.980469 342.164062 179.285156 342.730469 C 179.589844 343.300781 179.847656 343.890625 180.050781 344.5 C 180.253906 345.113281 180.402344 345.738281 180.5 346.375 C 180.597656 347.011719 180.636719 347.652344 180.621094 348.296875 C 180.609375 348.941406 180.539062 349.582031 180.414062 350.214844 C 180.289062 350.847656 180.113281 351.464844 179.882812 352.066406 C 179.652344 352.667969 179.371094 353.246094 179.039062 353.800781 C 178.707031 354.351562 178.332031 354.875 177.914062 355.363281 C 177.492188 355.851562 177.03125 356.300781 176.535156 356.710938 C 176.039062 357.121094 175.507812 357.484375 174.945312 357.804688 C 174.386719 358.121094 173.800781 358.390625 173.195312 358.609375 C 172.589844 358.824219 171.96875 358.988281 171.332031 359.101562 C 170.695312 359.210938 170.058594 359.265625 169.414062 359.265625 Z M 169.414062 359.265625 " fill-opacity="1" fill-rule="nonzero"/><path fill="#ffffff" d="M 223.867188 312.949219 C 223.03125 312.949219 222.203125 312.855469 221.390625 312.675781 L 151.800781 296.992188 C 151.082031 296.832031 150.382812 296.601562 149.710938 296.300781 C 149.035156 296.003906 148.398438 295.640625 147.796875 295.21875 C 147.191406 294.792969 146.636719 294.316406 146.128906 293.78125 C 145.621094 293.246094 145.171875 292.667969 144.777344 292.046875 C 144.382812 291.421875 144.050781 290.769531 143.789062 290.082031 C 143.523438 289.394531 143.328125 288.6875 143.199219 287.960938 C 143.074219 287.234375 143.023438 286.5 143.039062 285.765625 C 143.058594 285.027344 143.148438 284.300781 143.3125 283.582031 C 143.472656 282.863281 143.703125 282.164062 144.003906 281.492188 C 144.300781 280.820312 144.664062 280.179688 145.089844 279.578125 C 145.511719 278.976562 145.992188 278.421875 146.527344 277.914062 C 147.0625 277.40625 147.640625 276.957031 148.261719 276.5625 C 148.886719 276.167969 149.542969 275.839844 150.230469 275.574219 C 150.917969 275.308594 151.625 275.113281 152.351562 274.988281 C 153.078125 274.863281 153.808594 274.8125 154.546875 274.832031 C 155.28125 274.851562 156.011719 274.941406 156.730469 275.101562 L 226.324219 290.785156 C 226.992188 290.9375 227.640625 291.144531 228.269531 291.414062 C 228.898438 291.683594 229.496094 292.007812 230.066406 292.386719 C 230.636719 292.765625 231.167969 293.191406 231.660156 293.667969 C 232.152344 294.140625 232.597656 294.660156 232.992188 295.214844 C 233.390625 295.773438 233.734375 296.359375 234.023438 296.980469 C 234.3125 297.601562 234.542969 298.242188 234.71875 298.902344 C 234.890625 299.566406 235 300.238281 235.050781 300.921875 C 235.097656 301.601562 235.085938 302.285156 235.011719 302.964844 C 234.933594 303.644531 234.796875 304.3125 234.601562 304.96875 C 234.402344 305.621094 234.148438 306.253906 233.835938 306.863281 C 233.523438 307.472656 233.15625 308.046875 232.738281 308.585938 C 232.320312 309.128906 231.855469 309.628906 231.347656 310.085938 C 230.835938 310.542969 230.289062 310.949219 229.707031 311.304688 C 229.121094 311.660156 228.511719 311.960938 227.871094 312.207031 C 227.234375 312.449219 226.578125 312.636719 225.90625 312.761719 C 225.230469 312.886719 224.554688 312.949219 223.867188 312.949219 Z M 223.867188 312.949219 " fill-opacity="1" fill-rule="nonzero"/><path fill="#ffffff" d="M 299.828125 251.238281 C 299.234375 251.234375 298.644531 251.1875 298.054688 251.09375 C 297.46875 251 296.890625 250.859375 296.324219 250.671875 C 295.761719 250.484375 295.214844 250.257812 294.683594 249.984375 C 294.15625 249.710938 293.652344 249.394531 293.171875 249.042969 C 292.695312 248.6875 292.246094 248.300781 291.828125 247.875 C 291.414062 247.449219 291.03125 246.996094 290.6875 246.511719 C 290.34375 246.023438 290.039062 245.515625 289.773438 244.980469 C 289.511719 244.449219 289.289062 243.898438 289.113281 243.328125 L 271.121094 185.105469 C 270.902344 184.402344 270.757812 183.683594 270.679688 182.949219 C 270.605469 182.21875 270.601562 181.484375 270.667969 180.75 C 270.738281 180.015625 270.875 179.296875 271.085938 178.589844 C 271.296875 177.886719 271.574219 177.207031 271.917969 176.554688 C 272.261719 175.902344 272.664062 175.292969 273.128906 174.71875 C 273.59375 174.148438 274.109375 173.625 274.675781 173.15625 C 275.242188 172.6875 275.851562 172.273438 276.5 171.925781 C 277.148438 171.574219 277.824219 171.289062 278.527344 171.070312 C 279.230469 170.855469 279.949219 170.707031 280.679688 170.632812 C 281.414062 170.554688 282.148438 170.550781 282.882812 170.621094 C 283.613281 170.6875 284.335938 170.828125 285.039062 171.039062 C 285.746094 171.246094 286.425781 171.523438 287.078125 171.867188 C 287.730469 172.210938 288.339844 172.617188 288.914062 173.082031 C 289.484375 173.546875 290.003906 174.0625 290.476562 174.628906 C 290.945312 175.195312 291.355469 175.800781 291.707031 176.449219 C 292.058594 177.097656 292.34375 177.773438 292.558594 178.476562 L 310.554688 236.699219 C 310.683594 237.117188 310.789062 237.542969 310.867188 237.972656 C 310.945312 238.402344 311 238.835938 311.027344 239.273438 C 311.058594 239.710938 311.058594 240.148438 311.039062 240.585938 C 311.015625 241.023438 310.96875 241.457031 310.894531 241.890625 C 310.820312 242.320312 310.722656 242.746094 310.597656 243.167969 C 310.476562 243.585938 310.328125 244 310.15625 244.402344 C 309.984375 244.804688 309.792969 245.195312 309.574219 245.574219 C 309.359375 245.957031 309.121094 246.324219 308.859375 246.675781 C 308.601562 247.027344 308.320312 247.363281 308.019531 247.683594 C 307.722656 248.003906 307.40625 248.304688 307.070312 248.585938 C 306.734375 248.867188 306.386719 249.128906 306.019531 249.371094 C 305.65625 249.613281 305.277344 249.832031 304.886719 250.03125 C 304.496094 250.226562 304.097656 250.402344 303.683594 250.554688 C 303.273438 250.703125 302.855469 250.828125 302.429688 250.929688 C 302.003906 251.03125 301.574219 251.109375 301.136719 251.160156 C 300.703125 251.210938 300.265625 251.238281 299.828125 251.238281 Z M 299.828125 251.238281 " fill-opacity="1" fill-rule="nonzero"/></svg>